<svg xmlns="http://www.w3.org/2000/svg" xmlns:xlink="http://www.w3.org/1999/xlink" width="500" zoomAndPan="magnify" viewBox="0 0 375 374.999991" height="500" preserveAspectRatio="xMidYMid meet" version="1.0"><defs><clipPath id="cd6f96e37a"><path d="M 20.65625 33.164062 L 224 33.164062 L 224 342 L 20.65625 342 Z M 20.65625 33.164062 " clip-rule="nonzero"/></clipPath><clipPath id="d435cbd6ed"><path d="M 150 33.164062 L 354.40625 33.164062 L 354.40625 338 L 150 338 Z M 150 33.164062 " clip-rule="nonzero"/></clipPath></defs><rect x="-37.5" width="450" fill="#ffffff" y="-37.499999" height="449.999989" fill-opacity="1"/><path fill="#ffffff" d="M 362.5 336.109375 C 362.5 350.660156 350.660156 362.5 336.109375 362.5 L 38.890625 362.5 C 24.339844 362.5 12.5 350.660156 12.5 336.109375 L 12.5 38.886719 C 12.5 24.339844 24.339844 12.5 38.890625 12.5 L 336.109375 12.5 C 350.660156 12.5 362.5 24.339844 362.5 38.886719 Z M 336.109375 0 L 38.890625 0 C 17.445312 0 0 17.445312 0 38.886719 L 0 336.109375 C 0 357.554688 17.445312 375 38.890625 375 L 336.109375 375 C 357.554688 375 375 357.554688 375 336.109375 L 375 38.886719 C 375 17.445312 357.554688 0 336.109375 0 " fill-opacity="1" fill-rule="nonzero"/><g clip-path="url(#cd6f96e37a)"><path fill="#2563eb" d="M 75.285156 70.035156 C 68.558594 56.269531 60.660156 43.90625 51.808594 33.285156 C 92.933594 61.679688 121.046875 119.066406 121.046875 185.246094 C 121.046875 251.421875 92.933594 308.8125 51.808594 337.207031 C 60.660156 326.582031 68.558594 314.21875 75.28125 300.457031 C 42.328125 275.03125 20.78125 232.90625 20.78125 185.246094 C 20.78125 137.582031 42.328125 95.460938 75.285156 70.035156 Z M 211.027344 341.847656 C 252.082031 190.246094 173.503906 147.863281 201.46875 33.164062 C 148.746094 138.332031 235.4375 196.660156 211.027344 341.847656 Z M 211.027344 341.847656 " fill-opacity="1" fill-rule="nonzero"/></g><g clip-path="url(#d435cbd6ed)"><path fill="#3dd9bc" d="M 299.707031 300.457031 C 306.433594 314.21875 314.332031 326.582031 323.179688 337.207031 C 282.058594 308.8125 253.941406 251.421875 253.941406 185.246094 C 253.941406 119.066406 282.058594 61.675781 323.179688 33.285156 C 314.332031 43.90625 306.429688 56.273438 299.707031 70.035156 C 332.664062 95.460938 354.210938 137.582031 354.210938 185.246094 C 354.210938 232.90625 332.664062 275.03125 299.707031 300.457031 Z M 170.878906 172.921875 C 162.289062 172.921875 155.324219 179.882812 155.324219 188.472656 C 155.324219 197.0625 162.289062 204.027344 170.878906 204.027344 C 179.46875 204.027344 186.433594 197.0625 186.433594 188.472656 C 186.433594 179.882812 179.46875 172.921875 170.878906 172.921875 Z M 188.25 215.40625 C 182.546875 214.660156 177.324219 218.679688 176.582031 224.378906 C 175.835938 230.082031 179.855469 235.304688 185.554688 236.046875 C 191.257812 236.792969 196.480469 232.773438 197.222656 227.074219 C 197.972656 221.371094 193.953125 216.144531 188.25 215.40625 Z M 193.859375 248.433594 C 190.300781 247.96875 187.035156 250.480469 186.570312 254.042969 C 186.105469 257.601562 188.617188 260.867188 192.175781 261.332031 C 195.738281 261.796875 199 259.285156 199.46875 255.726562 C 199.929688 252.160156 197.421875 248.898438 193.859375 248.433594 Z M 194.433594 277.070312 C 191.71875 276.714844 189.226562 278.628906 188.871094 281.347656 C 188.519531 284.0625 190.433594 286.554688 193.148438 286.910156 C 195.867188 287.261719 198.359375 285.347656 198.710938 282.632812 C 199.070312 279.914062 197.152344 277.421875 194.433594 277.070312 Z M 192.597656 300.144531 C 190.433594 299.863281 188.453125 301.390625 188.171875 303.550781 C 187.886719 305.714844 189.414062 307.699219 191.578125 307.980469 C 193.742188 308.261719 195.722656 306.734375 196.003906 304.574219 C 196.289062 302.410156 194.761719 300.429688 192.597656 300.144531 Z M 188.265625 320.929688 C 186.203125 320.660156 184.316406 322.113281 184.046875 324.171875 C 183.773438 326.234375 185.226562 328.121094 187.289062 328.394531 C 189.351562 328.660156 191.238281 327.210938 191.507812 325.148438 C 191.78125 323.085938 190.328125 321.199219 188.265625 320.929688 Z M 157.707031 159.257812 C 163.230469 160.839844 168.996094 157.644531 170.578125 152.117188 C 172.164062 146.59375 168.96875 140.828125 163.441406 139.246094 C 157.917969 137.664062 152.152344 140.859375 150.566406 146.382812 C 148.980469 151.90625 152.179688 157.671875 157.707031 159.257812 Z M 157.074219 125.757812 C 160.527344 126.746094 164.128906 124.75 165.117188 121.296875 C 166.105469 117.84375 164.109375 114.246094 160.65625 113.257812 C 157.203125 112.269531 153.601562 114.261719 152.613281 117.71875 C 151.625 121.167969 153.625 124.769531 157.074219 125.757812 Z M 160.765625 97.355469 C 163.402344 98.109375 166.148438 96.585938 166.90625 93.953125 C 167.660156 91.316406 166.136719 88.570312 163.503906 87.8125 C 160.867188 87.058594 158.121094 88.582031 157.363281 91.214844 C 156.609375 93.855469 158.132812 96.601562 160.765625 97.355469 Z M 166.019531 74.808594 C 168.117188 75.410156 170.300781 74.195312 170.90625 72.097656 C 171.507812 70 170.292969 67.8125 168.195312 67.210938 C 166.097656 66.609375 163.910156 67.824219 163.308594 69.921875 C 162.707031 72.019531 163.921875 74.207031 166.019531 74.808594 Z M 173.390625 54.902344 C 175.386719 55.476562 177.472656 54.320312 178.042969 52.324219 C 178.617188 50.328125 177.460938 48.242188 175.464844 47.671875 C 173.46875 47.097656 171.382812 48.253906 170.8125 50.25 C 170.238281 52.246094 171.394531 54.332031 173.390625 54.902344 Z M 173.390625 54.902344 " fill-opacity="1" fill-rule="nonzero"/></g></svg>