<svg xmlns="http://www.w3.org/2000/svg" xmlns:xlink="http://www.w3.org/1999/xlink" width="500" zoomAndPan="magnify" viewBox="0 0 375 374.999991" height="500" preserveAspectRatio="xMidYMid meet" version="1.0"><defs><clipPath id="38915daa28"><path d="M 0 14.054688 L 228 14.054688 L 228 361 L 0 361 Z M 0 14.054688 " clip-rule="nonzero"/></clipPath><clipPath id="801e4600e8"><path d="M 145 14.054688 L 375 14.054688 L 375 356 L 145 356 Z M 145 14.054688 " clip-rule="nonzero"/></clipPath></defs><g clip-path="url(#38915daa28)"><path fill="#2563eb" d="M 61.398438 55.488281 C 53.835938 40.023438 44.960938 26.125 35.015625 14.191406 C 81.226562 46.101562 112.824219 110.59375 112.824219 184.964844 C 112.824219 259.335938 81.226562 323.828125 35.015625 355.738281 C 44.957031 343.800781 53.835938 329.90625 61.394531 314.441406 C 24.355469 285.863281 0.144531 238.527344 0.144531 184.964844 C 0.144531 131.402344 24.355469 84.066406 61.398438 55.488281 Z M 213.945312 360.953125 C 260.082031 190.585938 171.773438 142.953125 203.203125 14.054688 C 143.949219 132.246094 241.375 197.792969 213.945312 360.953125 Z M 213.945312 360.953125 " fill-opacity="1" fill-rule="nonzero"/></g><g clip-path="url(#801e4600e8)"><path fill="#3dd9bc" d="M 313.601562 314.441406 C 321.164062 329.90625 330.039062 343.800781 339.980469 355.738281 C 293.769531 323.828125 262.171875 259.335938 262.171875 184.964844 C 262.171875 110.59375 293.769531 46.097656 339.980469 14.191406 C 330.039062 26.128906 321.160156 40.023438 313.601562 55.488281 C 350.640625 84.066406 374.855469 131.402344 374.855469 184.964844 C 374.855469 238.527344 350.640625 285.863281 313.601562 314.441406 Z M 168.824219 171.113281 C 159.171875 171.113281 151.34375 178.941406 151.34375 188.59375 C 151.34375 198.246094 159.171875 206.074219 168.824219 206.074219 C 178.476562 206.074219 186.304688 198.246094 186.304688 188.59375 C 186.304688 178.941406 178.476562 171.113281 168.824219 171.113281 Z M 188.347656 218.859375 C 181.9375 218.023438 176.070312 222.539062 175.230469 228.945312 C 174.394531 235.351562 178.914062 241.222656 185.316406 242.058594 C 191.726562 242.894531 197.59375 238.378906 198.429688 231.972656 C 199.269531 225.566406 194.753906 219.691406 188.347656 218.859375 Z M 194.652344 255.976562 C 190.648438 255.457031 186.984375 258.277344 186.457031 262.277344 C 185.9375 266.28125 188.757812 269.949219 192.761719 270.472656 C 196.761719 270.992188 200.429688 268.171875 200.953125 264.171875 C 201.472656 260.164062 198.652344 256.496094 194.652344 255.976562 Z M 195.296875 288.15625 C 192.242188 287.757812 189.441406 289.910156 189.046875 292.964844 C 188.648438 296.019531 190.800781 298.816406 193.851562 299.214844 C 196.90625 299.613281 199.707031 297.460938 200.101562 294.40625 C 200.503906 291.355469 198.351562 288.554688 195.296875 288.15625 Z M 193.234375 314.089844 C 190.800781 313.773438 188.574219 315.488281 188.257812 317.917969 C 187.9375 320.351562 189.65625 322.578125 192.085938 322.894531 C 194.519531 323.210938 196.746094 321.496094 197.058594 319.066406 C 197.378906 316.636719 195.664062 314.410156 193.234375 314.089844 Z M 188.363281 337.445312 C 186.046875 337.144531 183.925781 338.777344 183.621094 341.09375 C 183.316406 343.410156 184.949219 345.53125 187.265625 345.835938 C 189.582031 346.136719 191.703125 344.507812 192.007812 342.191406 C 192.316406 339.871094 190.679688 337.75 188.363281 337.445312 Z M 154.019531 155.757812 C 160.230469 157.539062 166.710938 153.945312 168.488281 147.738281 C 170.265625 141.527344 166.675781 135.046875 160.464844 133.269531 C 154.257812 131.492188 147.777344 135.082031 146 141.292969 C 144.21875 147.5 147.8125 153.976562 154.019531 155.757812 Z M 153.3125 118.113281 C 157.191406 119.222656 161.238281 116.980469 162.347656 113.101562 C 163.457031 109.222656 161.21875 105.171875 157.335938 104.0625 C 153.457031 102.953125 149.410156 105.195312 148.296875 109.078125 C 147.1875 112.957031 149.433594 117.003906 153.3125 118.113281 Z M 157.460938 86.191406 C 160.421875 87.042969 163.507812 85.328125 164.359375 82.367188 C 165.210938 79.410156 163.496094 76.320312 160.535156 75.472656 C 157.574219 74.621094 154.488281 76.335938 153.636719 79.296875 C 152.789062 82.257812 154.5 85.347656 157.460938 86.191406 Z M 163.363281 60.855469 C 165.71875 61.53125 168.175781 60.167969 168.855469 57.808594 C 169.53125 55.453125 168.167969 52.996094 165.808594 52.316406 C 163.453125 51.640625 160.996094 53.003906 160.316406 55.363281 C 159.640625 57.71875 161.003906 60.179688 163.363281 60.855469 Z M 171.648438 38.488281 C 173.890625 39.128906 176.238281 37.832031 176.878906 35.585938 C 177.519531 33.34375 176.222656 31 173.976562 30.359375 C 171.734375 29.714844 169.390625 31.011719 168.75 33.257812 C 168.105469 35.5 169.402344 37.84375 171.648438 38.488281 Z M 171.648438 38.488281 " fill-opacity="1" fill-rule="nonzero"/></g></svg>