<svg xmlns="http://www.w3.org/2000/svg" xmlns:xlink="http://www.w3.org/1999/xlink" width="369" zoomAndPan="magnify" viewBox="0 0 276.75 190.499994" height="254" preserveAspectRatio="xMidYMid meet" version="1.0"><defs><g/><clipPath id="fc2d9cf681"><path d="M 55.347656 0 L 156 0 L 156 152.597656 L 55.347656 152.597656 Z M 55.347656 0 " clip-rule="nonzero"/></clipPath><clipPath id="ac18d14d77"><path d="M 119 0 L 220.664062 0 L 220.664062 151 L 119 151 Z M 119 0 " clip-rule="nonzero"/></clipPath></defs><g fill="#04383f" fill-opacity="1"><g transform="translate(5.707103, 181.709633)"><g><path d="M 7.140625 -12.671875 C 8.078125 -12.671875 8.992188 -12.476562 9.890625 -12.09375 C 10.796875 -11.71875 11.566406 -11.207031 12.203125 -10.5625 L 10.359375 -8.359375 C 9.953125 -8.867188 9.460938 -9.269531 8.890625 -9.5625 C 8.328125 -9.851562 7.765625 -10 7.203125 -10 C 6.203125 -10 5.367188 -9.648438 4.703125 -8.953125 C 4.035156 -8.253906 3.703125 -7.390625 3.703125 -6.359375 C 3.703125 -5.304688 4.035156 -4.425781 4.703125 -3.71875 C 5.367188 -3.007812 6.203125 -2.65625 7.203125 -2.65625 C 7.722656 -2.65625 8.265625 -2.785156 8.828125 -3.046875 C 9.398438 -3.316406 9.910156 -3.675781 10.359375 -4.125 L 12.21875 -2.15625 C 11.539062 -1.457031 10.738281 -0.898438 9.8125 -0.484375 C 8.882812 -0.0664062 7.957031 0.140625 7.03125 0.140625 C 5.144531 0.140625 3.570312 -0.472656 2.3125 -1.703125 C 1.0625 -2.941406 0.4375 -4.476562 0.4375 -6.3125 C 0.4375 -8.125 1.070312 -9.632812 2.34375 -10.84375 C 3.625 -12.0625 5.222656 -12.671875 7.140625 -12.671875 Z M 7.140625 -12.671875 "/></g></g></g><g fill="#04383f" fill-opacity="1"><g transform="translate(18.122438, 181.709633)"><g><path d="M 11.09375 -10.046875 L 4.453125 -10.046875 L 4.453125 -7.5625 L 10.453125 -7.5625 L 10.453125 -5.046875 L 4.453125 -5.046875 L 4.453125 -2.515625 L 11.296875 -2.515625 L 11.296875 0 L 1.25 0 L 1.25 -12.5625 L 11.09375 -12.5625 Z M 11.09375 -10.046875 "/></g></g></g><g fill="#04383f" fill-opacity="1"><g transform="translate(30.214833, 181.709633)"><g><path d="M 12.859375 0 L 10.03125 0 L 4.25 -7.734375 L 4.25 0 L 1.25 0 L 1.25 -12.5625 L 4.078125 -12.5625 L 9.875 -4.8125 L 9.875 -12.5625 L 12.859375 -12.5625 Z M 12.859375 0 "/></g></g></g><g fill="#04383f" fill-opacity="1"><g transform="translate(44.316641, 181.709633)"><g><path d="M 10.859375 -10 L 7.078125 -10 L 7.078125 0 L 3.875 0 L 3.875 -10 L 0.125 -10 L 0.125 -12.578125 L 10.859375 -12.578125 Z M 10.859375 -10 "/></g></g></g><g fill="#04383f" fill-opacity="1"><g transform="translate(55.278741, 181.709633)"><g><path d="M 8.828125 0 L 6.96875 -3.53125 L 4.453125 -3.53125 L 4.453125 0 L 1.25 0 L 1.25 -12.5625 L 6.875 -12.5625 C 8.539062 -12.5625 9.828125 -12.179688 10.734375 -11.421875 C 11.640625 -10.660156 12.09375 -9.582031 12.09375 -8.1875 C 12.09375 -6.25 11.335938 -4.898438 9.828125 -4.140625 L 12.453125 0 Z M 4.453125 -6.046875 L 6.875 -6.046875 C 7.570312 -6.046875 8.109375 -6.21875 8.484375 -6.5625 C 8.867188 -6.914062 9.0625 -7.421875 9.0625 -8.078125 C 9.0625 -8.722656 8.867188 -9.210938 8.484375 -9.546875 C 8.109375 -9.878906 7.570312 -10.046875 6.875 -10.046875 L 4.453125 -10.046875 Z M 4.453125 -6.046875 "/></g></g></g><g fill="#04383f" fill-opacity="1"><g transform="translate(68.268196, 181.709633)"><g><path d="M 7.21875 -12.671875 C 9.164062 -12.671875 10.785156 -12.0625 12.078125 -10.84375 C 13.367188 -9.632812 14.015625 -8.117188 14.015625 -6.296875 C 14.015625 -4.472656 13.363281 -2.941406 12.0625 -1.703125 C 10.769531 -0.472656 9.15625 0.140625 7.21875 0.140625 C 5.28125 0.140625 3.664062 -0.46875 2.375 -1.6875 C 1.082031 -2.914062 0.4375 -4.453125 0.4375 -6.296875 C 0.4375 -8.128906 1.082031 -9.648438 2.375 -10.859375 C 3.664062 -12.066406 5.28125 -12.671875 7.21875 -12.671875 Z M 7.25 -10 C 6.269531 -10 5.429688 -9.640625 4.734375 -8.921875 C 4.046875 -8.210938 3.703125 -7.332031 3.703125 -6.28125 C 3.703125 -5.226562 4.050781 -4.335938 4.75 -3.609375 C 5.445312 -2.890625 6.28125 -2.53125 7.25 -2.53125 C 8.21875 -2.53125 9.039062 -2.890625 9.71875 -3.609375 C 10.394531 -4.335938 10.734375 -5.226562 10.734375 -6.28125 C 10.734375 -7.332031 10.394531 -8.210938 9.71875 -8.921875 C 9.039062 -9.640625 8.21875 -10 7.25 -10 Z M 7.25 -10 "/></g></g></g><g fill="#04383f" fill-opacity="1"><g transform="translate(82.710887, 181.709633)"><g/></g></g><g fill="#04383f" fill-opacity="1"><g transform="translate(86.873256, 181.709633)"><g><path d="M 15.0625 0 L 12.25 0 L 12.21875 -8.171875 L 9.203125 -1.25 L 7.125 -1.25 L 4.109375 -8.171875 L 4.109375 0 L 1.25 0 L 1.25 -12.578125 L 4.75 -12.578125 L 8.171875 -5.09375 L 11.578125 -12.578125 L 15.0625 -12.578125 Z M 15.0625 0 "/></g></g></g><g fill="#04383f" fill-opacity="1"><g transform="translate(103.199782, 181.709633)"><g><path d="M 9.375 -15.6875 L 7.03125 -13.65625 L 4.671875 -13.65625 L 6.578125 -16.671875 Z M 11.09375 -10.046875 L 4.453125 -10.046875 L 4.453125 -7.5625 L 10.453125 -7.5625 L 10.453125 -5.046875 L 4.453125 -5.046875 L 4.453125 -2.515625 L 11.296875 -2.515625 L 11.296875 0 L 1.25 0 L 1.25 -12.5625 L 11.09375 -12.5625 Z M 11.09375 -10.046875 "/></g></g></g><g fill="#04383f" fill-opacity="1"><g transform="translate(115.292177, 181.709633)"><g><path d="M 1.25 -12.5625 L 6.65625 -12.5625 C 8.632812 -12.5625 10.242188 -11.976562 11.484375 -10.8125 C 12.722656 -9.65625 13.34375 -8.144531 13.34375 -6.28125 C 13.34375 -4.425781 12.710938 -2.914062 11.453125 -1.75 C 10.191406 -0.582031 8.550781 0 6.53125 0 L 1.25 0 Z M 4.453125 -10.015625 L 4.453125 -2.546875 L 6.734375 -2.546875 C 7.710938 -2.546875 8.515625 -2.890625 9.140625 -3.578125 C 9.773438 -4.265625 10.09375 -5.160156 10.09375 -6.265625 C 10.09375 -7.367188 9.757812 -8.269531 9.09375 -8.96875 C 8.4375 -9.664062 7.601562 -10.015625 6.59375 -10.015625 Z M 4.453125 -10.015625 "/></g></g></g><g fill="#04383f" fill-opacity="1"><g transform="translate(129.053102, 181.709633)"><g><path d="M 4.453125 0 L 1.25 0 L 1.25 -12.5625 L 4.453125 -12.5625 Z M 4.453125 0 "/></g></g></g><g fill="#04383f" fill-opacity="1"><g transform="translate(134.758411, 181.709633)"><g><path d="M 7.140625 -12.671875 C 8.078125 -12.671875 8.992188 -12.476562 9.890625 -12.09375 C 10.796875 -11.71875 11.566406 -11.207031 12.203125 -10.5625 L 10.359375 -8.359375 C 9.953125 -8.867188 9.460938 -9.269531 8.890625 -9.5625 C 8.328125 -9.851562 7.765625 -10 7.203125 -10 C 6.203125 -10 5.367188 -9.648438 4.703125 -8.953125 C 4.035156 -8.253906 3.703125 -7.390625 3.703125 -6.359375 C 3.703125 -5.304688 4.035156 -4.425781 4.703125 -3.71875 C 5.367188 -3.007812 6.203125 -2.65625 7.203125 -2.65625 C 7.722656 -2.65625 8.265625 -2.785156 8.828125 -3.046875 C 9.398438 -3.316406 9.910156 -3.675781 10.359375 -4.125 L 12.21875 -2.15625 C 11.539062 -1.457031 10.738281 -0.898438 9.8125 -0.484375 C 8.882812 -0.0664062 7.957031 0.140625 7.03125 0.140625 C 5.144531 0.140625 3.570312 -0.472656 2.3125 -1.703125 C 1.0625 -2.941406 0.4375 -4.476562 0.4375 -6.3125 C 0.4375 -8.125 1.070312 -9.632812 2.34375 -10.84375 C 3.625 -12.0625 5.222656 -12.671875 7.140625 -12.671875 Z M 7.140625 -12.671875 "/></g></g></g><g fill="#04383f" fill-opacity="1"><g transform="translate(147.173746, 181.709633)"><g><path d="M 7.21875 -12.671875 C 9.164062 -12.671875 10.785156 -12.0625 12.078125 -10.84375 C 13.367188 -9.632812 14.015625 -8.117188 14.015625 -6.296875 C 14.015625 -4.472656 13.363281 -2.941406 12.0625 -1.703125 C 10.769531 -0.472656 9.15625 0.140625 7.21875 0.140625 C 5.28125 0.140625 3.664062 -0.46875 2.375 -1.6875 C 1.082031 -2.914062 0.4375 -4.453125 0.4375 -6.296875 C 0.4375 -8.128906 1.082031 -9.648438 2.375 -10.859375 C 3.664062 -12.066406 5.28125 -12.671875 7.21875 -12.671875 Z M 7.25 -10 C 6.269531 -10 5.429688 -9.640625 4.734375 -8.921875 C 4.046875 -8.210938 3.703125 -7.332031 3.703125 -6.28125 C 3.703125 -5.226562 4.050781 -4.335938 4.75 -3.609375 C 5.445312 -2.890625 6.28125 -2.53125 7.25 -2.53125 C 8.21875 -2.53125 9.039062 -2.890625 9.71875 -3.609375 C 10.394531 -4.335938 10.734375 -5.226562 10.734375 -6.28125 C 10.734375 -7.332031 10.394531 -8.210938 9.71875 -8.921875 C 9.039062 -9.640625 8.21875 -10 7.25 -10 Z M 7.25 -10 "/></g></g></g><g fill="#04383f" fill-opacity="1"><g transform="translate(161.616437, 181.709633)"><g/></g></g><g fill="#04383f" fill-opacity="1"><g transform="translate(165.778807, 181.709633)"><g><path d="M 7.140625 -12.671875 C 8.078125 -12.671875 8.992188 -12.476562 9.890625 -12.09375 C 10.796875 -11.71875 11.566406 -11.207031 12.203125 -10.5625 L 10.359375 -8.359375 C 9.953125 -8.867188 9.460938 -9.269531 8.890625 -9.5625 C 8.328125 -9.851562 7.765625 -10 7.203125 -10 C 6.203125 -10 5.367188 -9.648438 4.703125 -8.953125 C 4.035156 -8.253906 3.703125 -7.390625 3.703125 -6.359375 C 3.703125 -5.304688 4.035156 -4.425781 4.703125 -3.71875 C 5.367188 -3.007812 6.203125 -2.65625 7.203125 -2.65625 C 7.722656 -2.65625 8.265625 -2.785156 8.828125 -3.046875 C 9.398438 -3.316406 9.910156 -3.675781 10.359375 -4.125 L 12.21875 -2.15625 C 11.539062 -1.457031 10.738281 -0.898438 9.8125 -0.484375 C 8.882812 -0.0664062 7.957031 0.140625 7.03125 0.140625 C 5.144531 0.140625 3.570312 -0.472656 2.3125 -1.703125 C 1.0625 -2.941406 0.4375 -4.476562 0.4375 -6.3125 C 0.4375 -8.125 1.070312 -9.632812 2.34375 -10.84375 C 3.625 -12.0625 5.222656 -12.671875 7.140625 -12.671875 Z M 7.140625 -12.671875 "/></g></g></g><g fill="#04383f" fill-opacity="1"><g transform="translate(178.194142, 181.709633)"><g><path d="M 9.609375 -2.3125 L 4.109375 -2.3125 L 3.203125 0 L -0.09375 0 L 5.328125 -12.5625 L 8.625 -12.5625 L 13.90625 0 L 10.5 0 Z M 8.671875 -4.734375 L 6.875 -9.390625 L 5.046875 -4.734375 Z M 8.671875 -4.734375 "/></g></g></g><g fill="#04383f" fill-opacity="1"><g transform="translate(192.008896, 181.709633)"><g><path d="M 8.828125 0 L 6.96875 -3.53125 L 4.453125 -3.53125 L 4.453125 0 L 1.25 0 L 1.25 -12.5625 L 6.875 -12.5625 C 8.539062 -12.5625 9.828125 -12.179688 10.734375 -11.421875 C 11.640625 -10.660156 12.09375 -9.582031 12.09375 -8.1875 C 12.09375 -6.25 11.335938 -4.898438 9.828125 -4.140625 L 12.453125 0 Z M 4.453125 -6.046875 L 6.875 -6.046875 C 7.570312 -6.046875 8.109375 -6.21875 8.484375 -6.5625 C 8.867188 -6.914062 9.0625 -7.421875 9.0625 -8.078125 C 9.0625 -8.722656 8.867188 -9.210938 8.484375 -9.546875 C 8.109375 -9.878906 7.570312 -10.046875 6.875 -10.046875 L 4.453125 -10.046875 Z M 4.453125 -6.046875 "/></g></g></g><g fill="#04383f" fill-opacity="1"><g transform="translate(204.998351, 181.709633)"><g><path d="M 8.828125 0 L 6.96875 -3.53125 L 4.453125 -3.53125 L 4.453125 0 L 1.25 0 L 1.25 -12.5625 L 6.875 -12.5625 C 8.539062 -12.5625 9.828125 -12.179688 10.734375 -11.421875 C 11.640625 -10.660156 12.09375 -9.582031 12.09375 -8.1875 C 12.09375 -6.25 11.335938 -4.898438 9.828125 -4.140625 L 12.453125 0 Z M 4.453125 -6.046875 L 6.875 -6.046875 C 7.570312 -6.046875 8.109375 -6.21875 8.484375 -6.5625 C 8.867188 -6.914062 9.0625 -7.421875 9.0625 -8.078125 C 9.0625 -8.722656 8.867188 -9.210938 8.484375 -9.546875 C 8.109375 -9.878906 7.570312 -10.046875 6.875 -10.046875 L 4.453125 -10.046875 Z M 4.453125 -6.046875 "/></g></g></g><g fill="#04383f" fill-opacity="1"><g transform="translate(217.987795, 181.709633)"><g><path d="M 9.609375 -2.3125 L 4.109375 -2.3125 L 3.203125 0 L -0.09375 0 L 5.328125 -12.5625 L 8.625 -12.5625 L 13.90625 0 L 10.5 0 Z M 8.671875 -4.734375 L 6.875 -9.390625 L 5.046875 -4.734375 Z M 8.671875 -4.734375 "/></g></g></g><g fill="#04383f" fill-opacity="1"><g transform="translate(231.802549, 181.709633)"><g><path d="M 6.09375 -12.703125 C 7.96875 -12.703125 9.617188 -12.238281 11.046875 -11.3125 L 9.84375 -8.8125 C 9.175781 -9.195312 8.46875 -9.507812 7.71875 -9.75 C 6.96875 -10 6.332031 -10.125 5.8125 -10.125 C 4.894531 -10.125 4.4375 -9.816406 4.4375 -9.203125 C 4.4375 -8.816406 4.660156 -8.503906 5.109375 -8.265625 C 5.566406 -8.023438 6.117188 -7.816406 6.765625 -7.640625 C 7.421875 -7.460938 8.078125 -7.25 8.734375 -7 C 9.390625 -6.757812 9.941406 -6.363281 10.390625 -5.8125 C 10.847656 -5.257812 11.078125 -4.566406 11.078125 -3.734375 C 11.078125 -2.523438 10.601562 -1.582031 9.65625 -0.90625 C 8.707031 -0.226562 7.503906 0.109375 6.046875 0.109375 C 5.003906 0.109375 3.972656 -0.0664062 2.953125 -0.421875 C 1.941406 -0.785156 1.0625 -1.28125 0.3125 -1.90625 L 1.546875 -4.359375 C 2.179688 -3.804688 2.925781 -3.351562 3.78125 -3 C 4.644531 -2.65625 5.414062 -2.484375 6.09375 -2.484375 C 6.601562 -2.484375 7 -2.570312 7.28125 -2.75 C 7.570312 -2.9375 7.71875 -3.210938 7.71875 -3.578125 C 7.71875 -3.921875 7.550781 -4.207031 7.21875 -4.4375 C 6.894531 -4.675781 6.488281 -4.851562 6 -4.96875 C 5.507812 -5.082031 4.972656 -5.234375 4.390625 -5.421875 C 3.816406 -5.609375 3.285156 -5.816406 2.796875 -6.046875 C 2.304688 -6.273438 1.894531 -6.632812 1.5625 -7.125 C 1.238281 -7.625 1.078125 -8.222656 1.078125 -8.921875 C 1.078125 -10.066406 1.535156 -10.984375 2.453125 -11.671875 C 3.367188 -12.359375 4.582031 -12.703125 6.09375 -12.703125 Z M 6.09375 -12.703125 "/></g></g></g><g fill="#04383f" fill-opacity="1"><g transform="translate(243.356711, 181.709633)"><g><path d="M 7.140625 -12.671875 C 8.078125 -12.671875 8.992188 -12.476562 9.890625 -12.09375 C 10.796875 -11.71875 11.566406 -11.207031 12.203125 -10.5625 L 10.359375 -8.359375 C 9.953125 -8.867188 9.460938 -9.269531 8.890625 -9.5625 C 8.328125 -9.851562 7.765625 -10 7.203125 -10 C 6.203125 -10 5.367188 -9.648438 4.703125 -8.953125 C 4.035156 -8.253906 3.703125 -7.390625 3.703125 -6.359375 C 3.703125 -5.304688 4.035156 -4.425781 4.703125 -3.71875 C 5.367188 -3.007812 6.203125 -2.65625 7.203125 -2.65625 C 7.722656 -2.65625 8.265625 -2.785156 8.828125 -3.046875 C 9.398438 -3.316406 9.910156 -3.675781 10.359375 -4.125 L 12.21875 -2.15625 C 11.539062 -1.457031 10.738281 -0.898438 9.8125 -0.484375 C 8.882812 -0.0664062 7.957031 0.140625 7.03125 0.140625 C 5.144531 0.140625 3.570312 -0.472656 2.3125 -1.703125 C 1.0625 -2.941406 0.4375 -4.476562 0.4375 -6.3125 C 0.4375 -8.125 1.070312 -9.632812 2.34375 -10.84375 C 3.625 -12.0625 5.222656 -12.671875 7.140625 -12.671875 Z M 7.140625 -12.671875 "/></g></g></g><g fill="#04383f" fill-opacity="1"><g transform="translate(255.772047, 181.709633)"><g><path d="M 7.21875 -12.671875 C 9.164062 -12.671875 10.785156 -12.0625 12.078125 -10.84375 C 13.367188 -9.632812 14.015625 -8.117188 14.015625 -6.296875 C 14.015625 -4.472656 13.363281 -2.941406 12.0625 -1.703125 C 10.769531 -0.472656 9.15625 0.140625 7.21875 0.140625 C 5.28125 0.140625 3.664062 -0.46875 2.375 -1.6875 C 1.082031 -2.914062 0.4375 -4.453125 0.4375 -6.296875 C 0.4375 -8.128906 1.082031 -9.648438 2.375 -10.859375 C 3.664062 -12.066406 5.28125 -12.671875 7.21875 -12.671875 Z M 7.25 -10 C 6.269531 -10 5.429688 -9.640625 4.734375 -8.921875 C 4.046875 -8.210938 3.703125 -7.332031 3.703125 -6.28125 C 3.703125 -5.226562 4.050781 -4.335938 4.75 -3.609375 C 5.445312 -2.890625 6.28125 -2.53125 7.25 -2.53125 C 8.21875 -2.53125 9.039062 -2.890625 9.71875 -3.609375 C 10.394531 -4.335938 10.734375 -5.226562 10.734375 -6.28125 C 10.734375 -7.332031 10.394531 -8.210938 9.71875 -8.921875 C 9.039062 -9.640625 8.21875 -10 7.25 -10 Z M 7.25 -10 "/></g></g></g><g clip-path="url(#fc2d9cf681)"><path fill="#2563eb" d="M 82.398438 18.257812 C 79.066406 11.441406 75.15625 5.320312 70.773438 0.0585938 C 91.132812 14.121094 105.058594 42.539062 105.058594 75.308594 C 105.058594 108.074219 91.132812 136.492188 70.773438 150.554688 C 75.152344 145.292969 79.066406 139.171875 82.394531 132.355469 C 66.078125 119.765625 55.40625 98.90625 55.40625 75.308594 C 55.40625 51.707031 66.078125 30.847656 82.398438 18.257812 Z M 149.613281 152.851562 C 169.941406 77.78125 131.03125 56.796875 144.878906 0 C 118.773438 52.078125 161.699219 80.960938 149.613281 152.851562 Z M 149.613281 152.851562 " fill-opacity="1" fill-rule="nonzero"/></g><g clip-path="url(#ac18d14d77)"><path fill="#3dd9bc" d="M 193.523438 132.355469 C 196.855469 139.171875 200.765625 145.292969 205.148438 150.554688 C 184.785156 136.492188 170.863281 108.074219 170.863281 75.308594 C 170.863281 42.539062 184.785156 14.117188 205.148438 0.0585938 C 200.765625 5.320312 196.851562 11.445312 193.523438 18.257812 C 209.84375 30.847656 220.511719 51.707031 220.511719 75.308594 C 220.511719 98.90625 209.84375 119.765625 193.523438 132.355469 Z M 129.730469 69.203125 C 125.476562 69.203125 122.03125 72.652344 122.03125 76.90625 C 122.03125 81.160156 125.476562 84.609375 129.730469 84.609375 C 133.984375 84.609375 137.433594 81.160156 137.433594 76.90625 C 137.433594 72.652344 133.984375 69.203125 129.730469 69.203125 Z M 138.332031 90.242188 C 135.511719 89.871094 132.921875 91.863281 132.554688 94.683594 C 132.1875 97.507812 134.175781 100.09375 137 100.460938 C 139.820312 100.832031 142.410156 98.839844 142.777344 96.019531 C 143.148438 93.195312 141.15625 90.609375 138.332031 90.242188 Z M 141.113281 106.597656 C 139.347656 106.367188 137.734375 107.609375 137.5 109.371094 C 137.273438 111.136719 138.515625 112.75 140.277344 112.984375 C 142.042969 113.210938 143.65625 111.96875 143.886719 110.207031 C 144.117188 108.441406 142.875 106.824219 141.113281 106.597656 Z M 141.394531 120.773438 C 140.050781 120.601562 138.816406 121.546875 138.640625 122.894531 C 138.464844 124.238281 139.414062 125.472656 140.761719 125.648438 C 142.105469 125.824219 143.339844 124.875 143.515625 123.527344 C 143.691406 122.183594 142.742188 120.949219 141.394531 120.773438 Z M 140.488281 132.203125 C 139.414062 132.0625 138.433594 132.816406 138.292969 133.886719 C 138.152344 134.960938 138.910156 135.941406 139.980469 136.082031 C 141.054688 136.222656 142.035156 135.464844 142.171875 134.394531 C 142.3125 133.324219 141.558594 132.34375 140.488281 132.203125 Z M 138.339844 142.492188 C 137.320312 142.359375 136.386719 143.078125 136.25 144.101562 C 136.117188 145.121094 136.835938 146.054688 137.859375 146.1875 C 138.878906 146.320312 139.8125 145.605469 139.949219 144.582031 C 140.082031 143.5625 139.363281 142.625 138.339844 142.492188 Z M 123.210938 62.4375 C 125.945312 63.222656 128.800781 61.640625 129.582031 58.902344 C 130.367188 56.167969 128.785156 53.3125 126.050781 52.527344 C 123.3125 51.746094 120.457031 53.328125 119.675781 56.0625 C 118.890625 58.800781 120.472656 61.652344 123.210938 62.4375 Z M 122.898438 45.851562 C 124.605469 46.339844 126.390625 45.351562 126.878906 43.640625 C 127.367188 41.933594 126.378906 40.148438 124.667969 39.660156 C 122.960938 39.171875 121.175781 40.160156 120.6875 41.867188 C 120.199219 43.578125 121.1875 45.359375 122.898438 45.851562 Z M 124.726562 31.785156 C 126.03125 32.160156 127.390625 31.40625 127.765625 30.101562 C 128.140625 28.796875 127.382812 27.4375 126.078125 27.0625 C 124.773438 26.6875 123.414062 27.441406 123.039062 28.746094 C 122.664062 30.050781 123.421875 31.414062 124.726562 31.785156 Z M 127.324219 20.621094 C 128.363281 20.917969 129.445312 20.320312 129.746094 19.28125 C 130.042969 18.242188 129.441406 17.160156 128.402344 16.859375 C 127.363281 16.5625 126.28125 17.164062 125.984375 18.203125 C 125.683594 19.242188 126.285156 20.324219 127.324219 20.621094 Z M 130.976562 10.765625 C 131.964844 11.050781 132.996094 10.476562 133.28125 9.488281 C 133.5625 8.5 132.992188 7.464844 132.003906 7.183594 C 131.011719 6.898438 129.980469 7.472656 129.699219 8.460938 C 129.414062 9.449219 129.988281 10.480469 130.976562 10.765625 Z M 130.976562 10.765625 " fill-opacity="1" fill-rule="nonzero"/></g></svg>