<svg xmlns="http://www.w3.org/2000/svg" xmlns:xlink="http://www.w3.org/1999/xlink" width="476" zoomAndPan="magnify" viewBox="0 0 357 66" height="88" preserveAspectRatio="xMidYMid meet" version="1.0"><defs><g/><clipPath id="49d6ac4e4e"><path d="M 0 0 L 43 0 L 43 65.25 L 0 65.25 Z M 0 0 " clip-rule="nonzero"/></clipPath><clipPath id="5ae1f364eb"><path d="M 27 0 L 70.5 0 L 70.5 65 L 27 65 Z M 27 0 " clip-rule="nonzero"/></clipPath></defs><g fill="#04383f" fill-opacity="1"><g transform="translate(86.248247, 39.899215)"><g><path d="M 7.15625 -12.703125 C 8.09375 -12.703125 9.015625 -12.507812 9.921875 -12.125 C 10.828125 -11.75 11.597656 -11.234375 12.234375 -10.578125 L 10.390625 -8.390625 C 9.984375 -8.890625 9.492188 -9.285156 8.921875 -9.578125 C 8.347656 -9.878906 7.78125 -10.03125 7.21875 -10.03125 C 6.21875 -10.03125 5.378906 -9.675781 4.703125 -8.96875 C 4.035156 -8.269531 3.703125 -7.40625 3.703125 -6.375 C 3.703125 -5.3125 4.035156 -4.425781 4.703125 -3.71875 C 5.378906 -3.007812 6.21875 -2.65625 7.21875 -2.65625 C 7.75 -2.65625 8.296875 -2.785156 8.859375 -3.046875 C 9.429688 -3.316406 9.941406 -3.679688 10.390625 -4.140625 L 12.265625 -2.15625 C 11.578125 -1.457031 10.765625 -0.898438 9.828125 -0.484375 C 8.898438 -0.0664062 7.976562 0.140625 7.0625 0.140625 C 5.164062 0.140625 3.585938 -0.472656 2.328125 -1.703125 C 1.066406 -2.941406 0.4375 -4.488281 0.4375 -6.34375 C 0.4375 -8.144531 1.078125 -9.65625 2.359375 -10.875 C 3.640625 -12.09375 5.238281 -12.703125 7.15625 -12.703125 Z M 7.15625 -12.703125 "/></g></g></g><g fill="#04383f" fill-opacity="1"><g transform="translate(98.696168, 39.899215)"><g><path d="M 11.125 -10.078125 L 4.46875 -10.078125 L 4.46875 -7.578125 L 10.46875 -7.578125 L 10.46875 -5.0625 L 4.46875 -5.0625 L 4.46875 -2.515625 L 11.328125 -2.515625 L 11.328125 0 L 1.265625 0 L 1.265625 -12.59375 L 11.125 -12.59375 Z M 11.125 -10.078125 "/></g></g></g><g fill="#04383f" fill-opacity="1"><g transform="translate(110.820301, 39.899215)"><g><path d="M 12.890625 0 L 10.0625 0 L 4.265625 -7.765625 L 4.265625 0 L 1.265625 0 L 1.265625 -12.59375 L 4.09375 -12.59375 L 9.90625 -4.828125 L 9.90625 -12.59375 L 12.890625 -12.59375 Z M 12.890625 0 "/></g></g></g><g fill="#04383f" fill-opacity="1"><g transform="translate(124.959122, 39.899215)"><g><path d="M 10.890625 -10.03125 L 7.09375 -10.03125 L 7.09375 0 L 3.890625 0 L 3.890625 -10.03125 L 0.125 -10.03125 L 0.125 -12.625 L 10.890625 -12.625 Z M 10.890625 -10.03125 "/></g></g></g><g fill="#04383f" fill-opacity="1"><g transform="translate(135.949993, 39.899215)"><g><path d="M 8.859375 0 L 6.984375 -3.546875 L 4.46875 -3.546875 L 4.46875 0 L 1.265625 0 L 1.265625 -12.59375 L 6.890625 -12.59375 C 8.554688 -12.59375 9.84375 -12.210938 10.75 -11.453125 C 11.664062 -10.691406 12.125 -9.609375 12.125 -8.203125 C 12.125 -6.265625 11.363281 -4.914062 9.84375 -4.15625 L 12.484375 0 Z M 4.46875 -6.0625 L 6.890625 -6.0625 C 7.585938 -6.0625 8.128906 -6.234375 8.515625 -6.578125 C 8.898438 -6.929688 9.09375 -7.4375 9.09375 -8.09375 C 9.09375 -8.75 8.898438 -9.242188 8.515625 -9.578125 C 8.128906 -9.910156 7.585938 -10.078125 6.890625 -10.078125 L 4.46875 -10.078125 Z M 4.46875 -6.0625 "/></g></g></g><g fill="#04383f" fill-opacity="1"><g transform="translate(148.97354, 39.899215)"><g><path d="M 7.234375 -12.703125 C 9.191406 -12.703125 10.816406 -12.09375 12.109375 -10.875 C 13.410156 -9.65625 14.0625 -8.132812 14.0625 -6.3125 C 14.0625 -4.476562 13.410156 -2.941406 12.109375 -1.703125 C 10.804688 -0.472656 9.179688 0.140625 7.234375 0.140625 C 5.285156 0.140625 3.664062 -0.472656 2.375 -1.703125 C 1.082031 -2.929688 0.4375 -4.46875 0.4375 -6.3125 C 0.4375 -8.15625 1.082031 -9.679688 2.375 -10.890625 C 3.664062 -12.097656 5.285156 -12.703125 7.234375 -12.703125 Z M 7.265625 -10.03125 C 6.285156 -10.03125 5.445312 -9.671875 4.75 -8.953125 C 4.050781 -8.242188 3.703125 -7.359375 3.703125 -6.296875 C 3.703125 -5.242188 4.050781 -4.351562 4.75 -3.625 C 5.457031 -2.894531 6.296875 -2.53125 7.265625 -2.53125 C 8.242188 -2.53125 9.070312 -2.894531 9.75 -3.625 C 10.425781 -4.351562 10.765625 -5.242188 10.765625 -6.296875 C 10.765625 -7.359375 10.425781 -8.242188 9.75 -8.953125 C 9.070312 -9.671875 8.242188 -10.03125 7.265625 -10.03125 Z M 7.265625 -10.03125 "/></g></g></g><g fill="#04383f" fill-opacity="1"><g transform="translate(163.454138, 39.899215)"><g/></g></g><g fill="#04383f" fill-opacity="1"><g transform="translate(167.627432, 39.899215)"><g><path d="M 15.109375 0 L 12.28125 0 L 12.265625 -8.1875 L 9.234375 -1.265625 L 7.140625 -1.265625 L 4.125 -8.1875 L 4.125 0 L 1.265625 0 L 1.265625 -12.625 L 4.765625 -12.625 L 8.1875 -5.109375 L 11.609375 -12.625 L 15.109375 -12.625 Z M 15.109375 0 "/></g></g></g><g fill="#04383f" fill-opacity="1"><g transform="translate(183.996809, 39.899215)"><g><path d="M 9.390625 -15.734375 L 7.0625 -13.703125 L 4.6875 -13.703125 L 6.59375 -16.71875 Z M 11.125 -10.078125 L 4.46875 -10.078125 L 4.46875 -7.578125 L 10.46875 -7.578125 L 10.46875 -5.0625 L 4.46875 -5.0625 L 4.46875 -2.515625 L 11.328125 -2.515625 L 11.328125 0 L 1.265625 0 L 1.265625 -12.59375 L 11.125 -12.59375 Z M 11.125 -10.078125 "/></g></g></g><g fill="#04383f" fill-opacity="1"><g transform="translate(196.120942, 39.899215)"><g><path d="M 1.265625 -12.59375 L 6.671875 -12.59375 C 8.648438 -12.59375 10.257812 -12.007812 11.5 -10.84375 C 12.75 -9.6875 13.375 -8.171875 13.375 -6.296875 C 13.375 -4.441406 12.742188 -2.925781 11.484375 -1.75 C 10.222656 -0.582031 8.578125 0 6.546875 0 L 1.265625 0 Z M 4.46875 -10.046875 L 4.46875 -2.5625 L 6.75 -2.5625 C 7.726562 -2.5625 8.53125 -2.90625 9.15625 -3.59375 C 9.789062 -4.28125 10.109375 -5.175781 10.109375 -6.28125 C 10.109375 -7.382812 9.78125 -8.285156 9.125 -8.984375 C 8.46875 -9.691406 7.628906 -10.046875 6.609375 -10.046875 Z M 4.46875 -10.046875 "/></g></g></g><g fill="#04383f" fill-opacity="1"><g transform="translate(209.917984, 39.899215)"><g><path d="M 4.46875 0 L 1.265625 0 L 1.265625 -12.59375 L 4.46875 -12.59375 Z M 4.46875 0 "/></g></g></g><g fill="#04383f" fill-opacity="1"><g transform="translate(215.638268, 39.899215)"><g><path d="M 7.15625 -12.703125 C 8.09375 -12.703125 9.015625 -12.507812 9.921875 -12.125 C 10.828125 -11.75 11.597656 -11.234375 12.234375 -10.578125 L 10.390625 -8.390625 C 9.984375 -8.890625 9.492188 -9.285156 8.921875 -9.578125 C 8.347656 -9.878906 7.78125 -10.03125 7.21875 -10.03125 C 6.21875 -10.03125 5.378906 -9.675781 4.703125 -8.96875 C 4.035156 -8.269531 3.703125 -7.40625 3.703125 -6.375 C 3.703125 -5.3125 4.035156 -4.425781 4.703125 -3.71875 C 5.378906 -3.007812 6.21875 -2.65625 7.21875 -2.65625 C 7.75 -2.65625 8.296875 -2.785156 8.859375 -3.046875 C 9.429688 -3.316406 9.941406 -3.679688 10.390625 -4.140625 L 12.265625 -2.15625 C 11.578125 -1.457031 10.765625 -0.898438 9.828125 -0.484375 C 8.898438 -0.0664062 7.976562 0.140625 7.0625 0.140625 C 5.164062 0.140625 3.585938 -0.472656 2.328125 -1.703125 C 1.066406 -2.941406 0.4375 -4.488281 0.4375 -6.34375 C 0.4375 -8.144531 1.078125 -9.65625 2.359375 -10.875 C 3.640625 -12.09375 5.238281 -12.703125 7.15625 -12.703125 Z M 7.15625 -12.703125 "/></g></g></g><g fill="#04383f" fill-opacity="1"><g transform="translate(228.086189, 39.899215)"><g><path d="M 7.234375 -12.703125 C 9.191406 -12.703125 10.816406 -12.09375 12.109375 -10.875 C 13.410156 -9.65625 14.0625 -8.132812 14.0625 -6.3125 C 14.0625 -4.476562 13.410156 -2.941406 12.109375 -1.703125 C 10.804688 -0.472656 9.179688 0.140625 7.234375 0.140625 C 5.285156 0.140625 3.664062 -0.472656 2.375 -1.703125 C 1.082031 -2.929688 0.4375 -4.46875 0.4375 -6.3125 C 0.4375 -8.15625 1.082031 -9.679688 2.375 -10.890625 C 3.664062 -12.097656 5.285156 -12.703125 7.234375 -12.703125 Z M 7.265625 -10.03125 C 6.285156 -10.03125 5.445312 -9.671875 4.75 -8.953125 C 4.050781 -8.242188 3.703125 -7.359375 3.703125 -6.296875 C 3.703125 -5.242188 4.050781 -4.351562 4.75 -3.625 C 5.457031 -2.894531 6.296875 -2.53125 7.265625 -2.53125 C 8.242188 -2.53125 9.070312 -2.894531 9.75 -3.625 C 10.425781 -4.351562 10.765625 -5.242188 10.765625 -6.296875 C 10.765625 -7.359375 10.425781 -8.242188 9.75 -8.953125 C 9.070312 -9.671875 8.242188 -10.03125 7.265625 -10.03125 Z M 7.265625 -10.03125 "/></g></g></g><g fill="#04383f" fill-opacity="1"><g transform="translate(242.566787, 39.899215)"><g/></g></g><g fill="#04383f" fill-opacity="1"><g transform="translate(246.740081, 39.899215)"><g><path d="M 7.15625 -12.703125 C 8.09375 -12.703125 9.015625 -12.507812 9.921875 -12.125 C 10.828125 -11.75 11.597656 -11.234375 12.234375 -10.578125 L 10.390625 -8.390625 C 9.984375 -8.890625 9.492188 -9.285156 8.921875 -9.578125 C 8.347656 -9.878906 7.78125 -10.03125 7.21875 -10.03125 C 6.21875 -10.03125 5.378906 -9.675781 4.703125 -8.96875 C 4.035156 -8.269531 3.703125 -7.40625 3.703125 -6.375 C 3.703125 -5.3125 4.035156 -4.425781 4.703125 -3.71875 C 5.378906 -3.007812 6.21875 -2.65625 7.21875 -2.65625 C 7.75 -2.65625 8.296875 -2.785156 8.859375 -3.046875 C 9.429688 -3.316406 9.941406 -3.679688 10.390625 -4.140625 L 12.265625 -2.15625 C 11.578125 -1.457031 10.765625 -0.898438 9.828125 -0.484375 C 8.898438 -0.0664062 7.976562 0.140625 7.0625 0.140625 C 5.164062 0.140625 3.585938 -0.472656 2.328125 -1.703125 C 1.066406 -2.941406 0.4375 -4.488281 0.4375 -6.34375 C 0.4375 -8.144531 1.078125 -9.65625 2.359375 -10.875 C 3.640625 -12.09375 5.238281 -12.703125 7.15625 -12.703125 Z M 7.15625 -12.703125 "/></g></g></g><g fill="#04383f" fill-opacity="1"><g transform="translate(259.188002, 39.899215)"><g><path d="M 9.625 -2.328125 L 4.125 -2.328125 L 3.203125 0 L -0.09375 0 L 5.34375 -12.59375 L 8.640625 -12.59375 L 13.953125 0 L 10.53125 0 Z M 8.6875 -4.75 L 6.890625 -9.40625 L 5.0625 -4.75 Z M 8.6875 -4.75 "/></g></g></g><g fill="#04383f" fill-opacity="1"><g transform="translate(273.039015, 39.899215)"><g><path d="M 8.859375 0 L 6.984375 -3.546875 L 4.46875 -3.546875 L 4.46875 0 L 1.265625 0 L 1.265625 -12.59375 L 6.890625 -12.59375 C 8.554688 -12.59375 9.84375 -12.210938 10.75 -11.453125 C 11.664062 -10.691406 12.125 -9.609375 12.125 -8.203125 C 12.125 -6.265625 11.363281 -4.914062 9.84375 -4.15625 L 12.484375 0 Z M 4.46875 -6.0625 L 6.890625 -6.0625 C 7.585938 -6.0625 8.128906 -6.234375 8.515625 -6.578125 C 8.898438 -6.929688 9.09375 -7.4375 9.09375 -8.09375 C 9.09375 -8.75 8.898438 -9.242188 8.515625 -9.578125 C 8.128906 -9.910156 7.585938 -10.078125 6.890625 -10.078125 L 4.46875 -10.078125 Z M 4.46875 -6.0625 "/></g></g></g><g fill="#04383f" fill-opacity="1"><g transform="translate(286.062563, 39.899215)"><g><path d="M 8.859375 0 L 6.984375 -3.546875 L 4.46875 -3.546875 L 4.46875 0 L 1.265625 0 L 1.265625 -12.59375 L 6.890625 -12.59375 C 8.554688 -12.59375 9.84375 -12.210938 10.75 -11.453125 C 11.664062 -10.691406 12.125 -9.609375 12.125 -8.203125 C 12.125 -6.265625 11.363281 -4.914062 9.84375 -4.15625 L 12.484375 0 Z M 4.46875 -6.0625 L 6.890625 -6.0625 C 7.585938 -6.0625 8.128906 -6.234375 8.515625 -6.578125 C 8.898438 -6.929688 9.09375 -7.4375 9.09375 -8.09375 C 9.09375 -8.75 8.898438 -9.242188 8.515625 -9.578125 C 8.128906 -9.910156 7.585938 -10.078125 6.890625 -10.078125 L 4.46875 -10.078125 Z M 4.46875 -6.0625 "/></g></g></g><g fill="#04383f" fill-opacity="1"><g transform="translate(299.086099, 39.899215)"><g><path d="M 9.625 -2.328125 L 4.125 -2.328125 L 3.203125 0 L -0.09375 0 L 5.34375 -12.59375 L 8.640625 -12.59375 L 13.953125 0 L 10.53125 0 Z M 8.6875 -4.75 L 6.890625 -9.40625 L 5.0625 -4.75 Z M 8.6875 -4.75 "/></g></g></g><g fill="#04383f" fill-opacity="1"><g transform="translate(312.937112, 39.899215)"><g><path d="M 6.109375 -12.75 C 7.984375 -12.75 9.632812 -12.28125 11.0625 -11.34375 L 9.859375 -8.84375 C 9.203125 -9.21875 8.492188 -9.53125 7.734375 -9.78125 C 6.984375 -10.03125 6.347656 -10.15625 5.828125 -10.15625 C 4.910156 -10.15625 4.453125 -9.847656 4.453125 -9.234375 C 4.453125 -8.835938 4.675781 -8.519531 5.125 -8.28125 C 5.582031 -8.039062 6.140625 -7.832031 6.796875 -7.65625 C 7.453125 -7.476562 8.101562 -7.265625 8.75 -7.015625 C 9.40625 -6.773438 9.960938 -6.378906 10.421875 -5.828125 C 10.878906 -5.273438 11.109375 -4.582031 11.109375 -3.75 C 11.109375 -2.53125 10.632812 -1.582031 9.6875 -0.90625 C 8.738281 -0.226562 7.53125 0.109375 6.0625 0.109375 C 5.019531 0.109375 3.988281 -0.0664062 2.96875 -0.421875 C 1.945312 -0.785156 1.0625 -1.28125 0.3125 -1.90625 L 1.546875 -4.375 C 2.179688 -3.820312 2.929688 -3.367188 3.796875 -3.015625 C 4.660156 -2.660156 5.429688 -2.484375 6.109375 -2.484375 C 6.617188 -2.484375 7.015625 -2.578125 7.296875 -2.765625 C 7.585938 -2.953125 7.734375 -3.222656 7.734375 -3.578125 C 7.734375 -3.929688 7.566406 -4.222656 7.234375 -4.453125 C 6.910156 -4.691406 6.503906 -4.863281 6.015625 -4.96875 C 5.523438 -5.082031 4.988281 -5.234375 4.40625 -5.421875 C 3.832031 -5.617188 3.296875 -5.832031 2.796875 -6.0625 C 2.304688 -6.289062 1.894531 -6.65625 1.5625 -7.15625 C 1.238281 -7.65625 1.078125 -8.253906 1.078125 -8.953125 C 1.078125 -10.097656 1.535156 -11.015625 2.453125 -11.703125 C 3.367188 -12.398438 4.585938 -12.75 6.109375 -12.75 Z M 6.109375 -12.75 "/></g></g></g><g fill="#04383f" fill-opacity="1"><g transform="translate(324.5216, 39.899215)"><g><path d="M 7.15625 -12.703125 C 8.09375 -12.703125 9.015625 -12.507812 9.921875 -12.125 C 10.828125 -11.75 11.597656 -11.234375 12.234375 -10.578125 L 10.390625 -8.390625 C 9.984375 -8.890625 9.492188 -9.285156 8.921875 -9.578125 C 8.347656 -9.878906 7.78125 -10.03125 7.21875 -10.03125 C 6.21875 -10.03125 5.378906 -9.675781 4.703125 -8.96875 C 4.035156 -8.269531 3.703125 -7.40625 3.703125 -6.375 C 3.703125 -5.3125 4.035156 -4.425781 4.703125 -3.71875 C 5.378906 -3.007812 6.21875 -2.65625 7.21875 -2.65625 C 7.75 -2.65625 8.296875 -2.785156 8.859375 -3.046875 C 9.429688 -3.316406 9.941406 -3.679688 10.390625 -4.140625 L 12.265625 -2.15625 C 11.578125 -1.457031 10.765625 -0.898438 9.828125 -0.484375 C 8.898438 -0.0664062 7.976562 0.140625 7.0625 0.140625 C 5.164062 0.140625 3.585938 -0.472656 2.328125 -1.703125 C 1.066406 -2.941406 0.4375 -4.488281 0.4375 -6.34375 C 0.4375 -8.144531 1.078125 -9.65625 2.359375 -10.875 C 3.640625 -12.09375 5.238281 -12.703125 7.15625 -12.703125 Z M 7.15625 -12.703125 "/></g></g></g><g fill="#04383f" fill-opacity="1"><g transform="translate(336.969521, 39.899215)"><g><path d="M 7.234375 -12.703125 C 9.191406 -12.703125 10.816406 -12.09375 12.109375 -10.875 C 13.410156 -9.65625 14.0625 -8.132812 14.0625 -6.3125 C 14.0625 -4.476562 13.410156 -2.941406 12.109375 -1.703125 C 10.804688 -0.472656 9.179688 0.140625 7.234375 0.140625 C 5.285156 0.140625 3.664062 -0.472656 2.375 -1.703125 C 1.082031 -2.929688 0.4375 -4.46875 0.4375 -6.3125 C 0.4375 -8.15625 1.082031 -9.679688 2.375 -10.890625 C 3.664062 -12.097656 5.285156 -12.703125 7.234375 -12.703125 Z M 7.265625 -10.03125 C 6.285156 -10.03125 5.445312 -9.671875 4.75 -8.953125 C 4.050781 -8.242188 3.703125 -7.359375 3.703125 -6.296875 C 3.703125 -5.242188 4.050781 -4.351562 4.75 -3.625 C 5.457031 -2.894531 6.296875 -2.53125 7.265625 -2.53125 C 8.242188 -2.53125 9.070312 -2.894531 9.75 -3.625 C 10.425781 -4.351562 10.765625 -5.242188 10.765625 -6.296875 C 10.765625 -7.359375 10.425781 -8.242188 9.75 -8.953125 C 9.070312 -9.671875 8.242188 -10.03125 7.265625 -10.03125 Z M 7.265625 -10.03125 "/></g></g></g><g clip-path="url(#49d6ac4e4e)"><path fill="#2563eb" d="M 11.597656 7.828125 C 10.171875 4.90625 8.492188 2.28125 6.613281 0.0273438 C 15.347656 6.054688 21.316406 18.242188 21.316406 32.292969 C 21.316406 46.34375 15.347656 58.53125 6.613281 64.558594 C 8.492188 62.304688 10.171875 59.679688 11.597656 56.757812 C 4.601562 51.359375 0.0273438 42.414062 0.0273438 32.292969 C 0.0273438 22.171875 4.601562 13.226562 11.597656 7.828125 Z M 40.421875 65.546875 C 49.140625 33.355469 32.453125 24.355469 38.390625 0 C 27.195312 22.332031 45.605469 34.71875 40.421875 65.546875 Z M 40.421875 65.546875 " fill-opacity="1" fill-rule="nonzero"/></g><g clip-path="url(#5ae1f364eb)"><path fill="#3dd9bc" d="M 59.253906 56.757812 C 60.679688 59.679688 62.359375 62.304688 64.238281 64.558594 C 55.503906 58.53125 49.535156 46.34375 49.535156 32.292969 C 49.535156 18.242188 55.503906 6.054688 64.238281 0.0273438 C 62.359375 2.28125 60.679688 4.90625 59.253906 7.828125 C 66.25 13.226562 70.824219 22.171875 70.824219 32.292969 C 70.824219 42.414062 66.25 51.359375 59.253906 56.757812 Z M 31.898438 29.675781 C 30.074219 29.675781 28.59375 31.15625 28.59375 32.980469 C 28.59375 34.800781 30.074219 36.28125 31.898438 36.28125 C 33.722656 36.28125 35.199219 34.800781 35.199219 32.980469 C 35.199219 31.15625 33.722656 29.675781 31.898438 29.675781 Z M 35.585938 38.695312 C 34.375 38.539062 33.265625 39.390625 33.109375 40.601562 C 32.949219 41.8125 33.804688 42.921875 35.011719 43.082031 C 36.222656 43.238281 37.332031 42.386719 37.492188 41.175781 C 37.648438 39.964844 36.796875 38.855469 35.585938 38.695312 Z M 36.777344 45.710938 C 36.019531 45.613281 35.328125 46.144531 35.230469 46.902344 C 35.128906 47.65625 35.664062 48.351562 36.417969 48.449219 C 37.175781 48.546875 37.867188 48.015625 37.96875 47.257812 C 38.066406 46.5 37.535156 45.808594 36.777344 45.710938 Z M 36.898438 51.789062 C 36.320312 51.714844 35.792969 52.121094 35.71875 52.699219 C 35.644531 53.277344 36.050781 53.804688 36.625 53.878906 C 37.203125 53.957031 37.730469 53.546875 37.808594 52.972656 C 37.882812 52.394531 37.476562 51.867188 36.898438 51.789062 Z M 36.507812 56.691406 C 36.050781 56.628906 35.628906 56.953125 35.570312 57.414062 C 35.507812 57.875 35.832031 58.292969 36.292969 58.355469 C 36.75 58.414062 37.171875 58.089844 37.230469 57.632812 C 37.292969 57.171875 36.96875 56.75 36.507812 56.691406 Z M 35.589844 61.105469 C 35.152344 61.046875 34.75 61.355469 34.691406 61.792969 C 34.636719 62.230469 34.945312 62.632812 35.382812 62.6875 C 35.820312 62.746094 36.21875 62.4375 36.277344 62 C 36.335938 61.5625 36.027344 61.160156 35.589844 61.105469 Z M 29.101562 26.773438 C 30.273438 27.109375 31.496094 26.433594 31.832031 25.257812 C 32.167969 24.085938 31.492188 22.863281 30.316406 22.523438 C 29.144531 22.1875 27.921875 22.867188 27.585938 24.042969 C 27.246094 25.214844 27.925781 26.4375 29.101562 26.773438 Z M 28.964844 19.660156 C 29.699219 19.871094 30.464844 19.449219 30.671875 18.714844 C 30.882812 17.980469 30.460938 17.214844 29.726562 17.007812 C 28.992188 16.796875 28.230469 17.21875 28.019531 17.953125 C 27.808594 18.6875 28.234375 19.453125 28.964844 19.660156 Z M 29.75 13.628906 C 30.308594 13.792969 30.894531 13.46875 31.054688 12.90625 C 31.214844 12.347656 30.890625 11.765625 30.332031 11.605469 C 29.769531 11.445312 29.1875 11.769531 29.027344 12.328125 C 28.867188 12.886719 29.191406 13.46875 29.75 13.628906 Z M 30.863281 8.84375 C 31.308594 8.96875 31.773438 8.714844 31.902344 8.265625 C 32.03125 7.820312 31.773438 7.359375 31.328125 7.230469 C 30.882812 7.101562 30.417969 7.359375 30.289062 7.804688 C 30.160156 8.25 30.417969 8.714844 30.863281 8.84375 Z M 32.429688 4.617188 C 32.855469 4.738281 33.296875 4.492188 33.417969 4.070312 C 33.539062 3.644531 33.296875 3.203125 32.871094 3.082031 C 32.445312 2.957031 32.003906 3.203125 31.882812 3.628906 C 31.761719 4.050781 32.007812 4.496094 32.429688 4.617188 Z M 32.429688 4.617188 " fill-opacity="1" fill-rule="nonzero"/></g></svg>