<svg xmlns="http://www.w3.org/2000/svg" xmlns:xlink="http://www.w3.org/1999/xlink" width="516" zoomAndPan="magnify" viewBox="0 0 386.88 266.250005" height="355" preserveAspectRatio="xMidYMid meet" version="1.0"><defs><g/><clipPath id="974f7e2272"><path d="M 77.664062 0 L 219 0 L 219 213.898438 L 77.664062 213.898438 Z M 77.664062 0 " clip-rule="nonzero"/></clipPath><clipPath id="416b43a020"><path d="M 167 0 L 308.765625 0 L 308.765625 211 L 167 211 Z M 167 0 " clip-rule="nonzero"/></clipPath></defs><g fill="#d9d9d9" fill-opacity="1"><g transform="translate(8.143419, 254.477769)"><g><path d="M 10 -17.734375 C 11.300781 -17.734375 12.582031 -17.460938 13.84375 -16.921875 C 15.113281 -16.390625 16.191406 -15.675781 17.078125 -14.78125 L 14.5 -11.703125 C 13.925781 -12.410156 13.238281 -12.96875 12.4375 -13.375 C 11.644531 -13.789062 10.859375 -14 10.078125 -14 C 8.679688 -14 7.515625 -13.507812 6.578125 -12.53125 C 5.640625 -11.550781 5.171875 -10.335938 5.171875 -8.890625 C 5.171875 -7.421875 5.640625 -6.191406 6.578125 -5.203125 C 7.515625 -4.210938 8.679688 -3.71875 10.078125 -3.71875 C 10.816406 -3.71875 11.582031 -3.898438 12.375 -4.265625 C 13.164062 -4.640625 13.875 -5.144531 14.5 -5.78125 L 17.109375 -3.015625 C 16.148438 -2.046875 15.019531 -1.265625 13.71875 -0.671875 C 12.425781 -0.0859375 11.132812 0.203125 9.84375 0.203125 C 7.195312 0.203125 4.992188 -0.65625 3.234375 -2.375 C 1.484375 -4.101562 0.609375 -6.257812 0.609375 -8.84375 C 0.609375 -11.375 1.503906 -13.488281 3.296875 -15.1875 C 5.085938 -16.882812 7.320312 -17.734375 10 -17.734375 Z M 10 -17.734375 "/></g></g></g><g fill="#d9d9d9" fill-opacity="1"><g transform="translate(25.530648, 254.477769)"><g><path d="M 15.53125 -14.0625 L 6.234375 -14.0625 L 6.234375 -10.578125 L 14.625 -10.578125 L 14.625 -7.0625 L 6.234375 -7.0625 L 6.234375 -3.515625 L 15.796875 -3.515625 L 15.796875 0 L 1.765625 0 L 1.765625 -17.59375 L 15.53125 -17.59375 Z M 15.53125 -14.0625 "/></g></g></g><g fill="#d9d9d9" fill-opacity="1"><g transform="translate(42.465611, 254.477769)"><g><path d="M 17.984375 0 L 14.046875 0 L 5.953125 -10.828125 L 5.953125 0 L 1.765625 0 L 1.765625 -17.59375 L 5.703125 -17.59375 L 13.8125 -6.734375 L 13.8125 -17.59375 L 17.984375 -17.59375 Z M 17.984375 0 "/></g></g></g><g fill="#d9d9d9" fill-opacity="1"><g transform="translate(62.214684, 254.477769)"><g><path d="M 15.203125 -14 L 9.90625 -14 L 9.90625 0 L 5.421875 0 L 5.421875 -14 L 0.171875 -14 L 0.171875 -17.609375 L 15.203125 -17.609375 Z M 15.203125 -14 "/></g></g></g><g fill="#d9d9d9" fill-opacity="1"><g transform="translate(77.566708, 254.477769)"><g><path d="M 12.359375 0 L 9.75 -4.953125 L 6.234375 -4.953125 L 6.234375 0 L 1.765625 0 L 1.765625 -17.59375 L 9.625 -17.59375 C 11.945312 -17.59375 13.742188 -17.054688 15.015625 -15.984375 C 16.296875 -14.921875 16.9375 -13.410156 16.9375 -11.453125 C 16.9375 -8.742188 15.875 -6.859375 13.75 -5.796875 L 17.4375 0 Z M 6.234375 -8.46875 L 9.625 -8.46875 C 10.59375 -8.46875 11.34375 -8.707031 11.875 -9.1875 C 12.414062 -9.675781 12.6875 -10.382812 12.6875 -11.3125 C 12.6875 -12.207031 12.414062 -12.890625 11.875 -13.359375 C 11.34375 -13.828125 10.59375 -14.0625 9.625 -14.0625 L 6.234375 -14.0625 Z M 6.234375 -8.46875 "/></g></g></g><g fill="#d9d9d9" fill-opacity="1"><g transform="translate(95.757971, 254.477769)"><g><path d="M 10.09375 -17.734375 C 12.832031 -17.734375 15.101562 -16.882812 16.90625 -15.1875 C 18.71875 -13.488281 19.625 -11.363281 19.625 -8.8125 C 19.625 -6.25 18.710938 -4.101562 16.890625 -2.375 C 15.078125 -0.65625 12.8125 0.203125 10.09375 0.203125 C 7.382812 0.203125 5.125 -0.65625 3.3125 -2.375 C 1.507812 -4.09375 0.609375 -6.238281 0.609375 -8.8125 C 0.609375 -11.375 1.507812 -13.5 3.3125 -15.1875 C 5.125 -16.882812 7.382812 -17.734375 10.09375 -17.734375 Z M 10.15625 -14 C 8.78125 -14 7.601562 -13.5 6.625 -12.5 C 5.65625 -11.5 5.171875 -10.257812 5.171875 -8.78125 C 5.171875 -7.3125 5.660156 -6.070312 6.640625 -5.0625 C 7.617188 -4.050781 8.785156 -3.546875 10.140625 -3.546875 C 11.503906 -3.546875 12.660156 -4.050781 13.609375 -5.0625 C 14.554688 -6.070312 15.03125 -7.3125 15.03125 -8.78125 C 15.03125 -10.257812 14.554688 -11.5 13.609375 -12.5 C 12.660156 -13.5 11.507812 -14 10.15625 -14 Z M 10.15625 -14 "/></g></g></g><g fill="#d9d9d9" fill-opacity="1"><g transform="translate(115.984438, 254.477769)"><g/></g></g><g fill="#d9d9d9" fill-opacity="1"><g transform="translate(121.813686, 254.477769)"><g><path d="M 21.078125 0 L 17.140625 0 L 17.109375 -11.4375 L 12.890625 -1.765625 L 9.96875 -1.765625 L 5.75 -11.4375 L 5.75 0 L 1.765625 0 L 1.765625 -17.609375 L 6.65625 -17.609375 L 11.4375 -7.140625 L 16.203125 -17.609375 L 21.078125 -17.609375 Z M 21.078125 0 "/></g></g></g><g fill="#d9d9d9" fill-opacity="1"><g transform="translate(144.678395, 254.477769)"><g><path d="M 13.109375 -21.953125 L 9.84375 -19.125 L 6.53125 -19.125 L 9.203125 -23.34375 Z M 15.53125 -14.0625 L 6.234375 -14.0625 L 6.234375 -10.578125 L 14.625 -10.578125 L 14.625 -7.0625 L 6.234375 -7.0625 L 6.234375 -3.515625 L 15.796875 -3.515625 L 15.796875 0 L 1.765625 0 L 1.765625 -17.59375 L 15.53125 -17.59375 Z M 15.53125 -14.0625 "/></g></g></g><g fill="#d9d9d9" fill-opacity="1"><g transform="translate(161.613358, 254.477769)"><g><path d="M 1.765625 -17.59375 L 9.328125 -17.59375 C 12.085938 -17.59375 14.332031 -16.78125 16.0625 -15.15625 C 17.800781 -13.53125 18.671875 -11.410156 18.671875 -8.796875 C 18.671875 -6.203125 17.789062 -4.085938 16.03125 -2.453125 C 14.269531 -0.816406 11.972656 0 9.140625 0 L 1.765625 0 Z M 6.234375 -14.015625 L 6.234375 -3.5625 L 9.421875 -3.5625 C 10.796875 -3.5625 11.921875 -4.039062 12.796875 -5 C 13.679688 -5.96875 14.125 -7.222656 14.125 -8.765625 C 14.125 -10.304688 13.660156 -11.566406 12.734375 -12.546875 C 11.816406 -13.523438 10.644531 -14.015625 9.21875 -14.015625 Z M 6.234375 -14.015625 "/></g></g></g><g fill="#d9d9d9" fill-opacity="1"><g transform="translate(180.885036, 254.477769)"><g><path d="M 6.234375 0 L 1.765625 0 L 1.765625 -17.59375 L 6.234375 -17.59375 Z M 6.234375 0 "/></g></g></g><g fill="#d9d9d9" fill-opacity="1"><g transform="translate(188.875115, 254.477769)"><g><path d="M 10 -17.734375 C 11.300781 -17.734375 12.582031 -17.460938 13.84375 -16.921875 C 15.113281 -16.390625 16.191406 -15.675781 17.078125 -14.78125 L 14.5 -11.703125 C 13.925781 -12.410156 13.238281 -12.96875 12.4375 -13.375 C 11.644531 -13.789062 10.859375 -14 10.078125 -14 C 8.679688 -14 7.515625 -13.507812 6.578125 -12.53125 C 5.640625 -11.550781 5.171875 -10.335938 5.171875 -8.890625 C 5.171875 -7.421875 5.640625 -6.191406 6.578125 -5.203125 C 7.515625 -4.210938 8.679688 -3.71875 10.078125 -3.71875 C 10.816406 -3.71875 11.582031 -3.898438 12.375 -4.265625 C 13.164062 -4.640625 13.875 -5.144531 14.5 -5.78125 L 17.109375 -3.015625 C 16.148438 -2.046875 15.019531 -1.265625 13.71875 -0.671875 C 12.425781 -0.0859375 11.132812 0.203125 9.84375 0.203125 C 7.195312 0.203125 4.992188 -0.65625 3.234375 -2.375 C 1.484375 -4.101562 0.609375 -6.257812 0.609375 -8.84375 C 0.609375 -11.375 1.503906 -13.488281 3.296875 -15.1875 C 5.085938 -16.882812 7.320312 -17.734375 10 -17.734375 Z M 10 -17.734375 "/></g></g></g><g fill="#d9d9d9" fill-opacity="1"><g transform="translate(206.262345, 254.477769)"><g><path d="M 10.09375 -17.734375 C 12.832031 -17.734375 15.101562 -16.882812 16.90625 -15.1875 C 18.71875 -13.488281 19.625 -11.363281 19.625 -8.8125 C 19.625 -6.25 18.710938 -4.101562 16.890625 -2.375 C 15.078125 -0.65625 12.8125 0.203125 10.09375 0.203125 C 7.382812 0.203125 5.125 -0.65625 3.3125 -2.375 C 1.507812 -4.09375 0.609375 -6.238281 0.609375 -8.8125 C 0.609375 -11.375 1.507812 -13.5 3.3125 -15.1875 C 5.125 -16.882812 7.382812 -17.734375 10.09375 -17.734375 Z M 10.15625 -14 C 8.78125 -14 7.601562 -13.5 6.625 -12.5 C 5.65625 -11.5 5.171875 -10.257812 5.171875 -8.78125 C 5.171875 -7.3125 5.660156 -6.070312 6.640625 -5.0625 C 7.617188 -4.050781 8.785156 -3.546875 10.140625 -3.546875 C 11.503906 -3.546875 12.660156 -4.050781 13.609375 -5.0625 C 14.554688 -6.070312 15.03125 -7.3125 15.03125 -8.78125 C 15.03125 -10.257812 14.554688 -11.5 13.609375 -12.5 C 12.660156 -13.5 11.507812 -14 10.15625 -14 Z M 10.15625 -14 "/></g></g></g><g fill="#d9d9d9" fill-opacity="1"><g transform="translate(226.488812, 254.477769)"><g/></g></g><g fill="#d9d9d9" fill-opacity="1"><g transform="translate(232.31806, 254.477769)"><g><path d="M 10 -17.734375 C 11.300781 -17.734375 12.582031 -17.460938 13.84375 -16.921875 C 15.113281 -16.390625 16.191406 -15.675781 17.078125 -14.78125 L 14.5 -11.703125 C 13.925781 -12.410156 13.238281 -12.96875 12.4375 -13.375 C 11.644531 -13.789062 10.859375 -14 10.078125 -14 C 8.679688 -14 7.515625 -13.507812 6.578125 -12.53125 C 5.640625 -11.550781 5.171875 -10.335938 5.171875 -8.890625 C 5.171875 -7.421875 5.640625 -6.191406 6.578125 -5.203125 C 7.515625 -4.210938 8.679688 -3.71875 10.078125 -3.71875 C 10.816406 -3.71875 11.582031 -3.898438 12.375 -4.265625 C 13.164062 -4.640625 13.875 -5.144531 14.5 -5.78125 L 17.109375 -3.015625 C 16.148438 -2.046875 15.019531 -1.265625 13.71875 -0.671875 C 12.425781 -0.0859375 11.132812 0.203125 9.84375 0.203125 C 7.195312 0.203125 4.992188 -0.65625 3.234375 -2.375 C 1.484375 -4.101562 0.609375 -6.257812 0.609375 -8.84375 C 0.609375 -11.375 1.503906 -13.488281 3.296875 -15.1875 C 5.085938 -16.882812 7.320312 -17.734375 10 -17.734375 Z M 10 -17.734375 "/></g></g></g><g fill="#d9d9d9" fill-opacity="1"><g transform="translate(249.705289, 254.477769)"><g><path d="M 13.4375 -3.234375 L 5.75 -3.234375 L 4.46875 0 L -0.125 0 L 7.46875 -17.59375 L 12.0625 -17.59375 L 19.46875 0 L 14.703125 0 Z M 12.140625 -6.640625 L 9.625 -13.140625 L 7.0625 -6.640625 Z M 12.140625 -6.640625 "/></g></g></g><g fill="#d9d9d9" fill-opacity="1"><g transform="translate(269.052353, 254.477769)"><g><path d="M 12.359375 0 L 9.75 -4.953125 L 6.234375 -4.953125 L 6.234375 0 L 1.765625 0 L 1.765625 -17.59375 L 9.625 -17.59375 C 11.945312 -17.59375 13.742188 -17.054688 15.015625 -15.984375 C 16.296875 -14.921875 16.9375 -13.410156 16.9375 -11.453125 C 16.9375 -8.742188 15.875 -6.859375 13.75 -5.796875 L 17.4375 0 Z M 6.234375 -8.46875 L 9.625 -8.46875 C 10.59375 -8.46875 11.34375 -8.707031 11.875 -9.1875 C 12.414062 -9.675781 12.6875 -10.382812 12.6875 -11.3125 C 12.6875 -12.207031 12.414062 -12.890625 11.875 -13.359375 C 11.34375 -13.828125 10.59375 -14.0625 9.625 -14.0625 L 6.234375 -14.0625 Z M 6.234375 -8.46875 "/></g></g></g><g fill="#d9d9d9" fill-opacity="1"><g transform="translate(287.243616, 254.477769)"><g><path d="M 12.359375 0 L 9.75 -4.953125 L 6.234375 -4.953125 L 6.234375 0 L 1.765625 0 L 1.765625 -17.59375 L 9.625 -17.59375 C 11.945312 -17.59375 13.742188 -17.054688 15.015625 -15.984375 C 16.296875 -14.921875 16.9375 -13.410156 16.9375 -11.453125 C 16.9375 -8.742188 15.875 -6.859375 13.75 -5.796875 L 17.4375 0 Z M 6.234375 -8.46875 L 9.625 -8.46875 C 10.59375 -8.46875 11.34375 -8.707031 11.875 -9.1875 C 12.414062 -9.675781 12.6875 -10.382812 12.6875 -11.3125 C 12.6875 -12.207031 12.414062 -12.890625 11.875 -13.359375 C 11.34375 -13.828125 10.59375 -14.0625 9.625 -14.0625 L 6.234375 -14.0625 Z M 6.234375 -8.46875 "/></g></g></g><g fill="#d9d9d9" fill-opacity="1"><g transform="translate(305.434863, 254.477769)"><g><path d="M 13.4375 -3.234375 L 5.75 -3.234375 L 4.46875 0 L -0.125 0 L 7.46875 -17.59375 L 12.0625 -17.59375 L 19.46875 0 L 14.703125 0 Z M 12.140625 -6.640625 L 9.625 -13.140625 L 7.0625 -6.640625 Z M 12.140625 -6.640625 "/></g></g></g><g fill="#d9d9d9" fill-opacity="1"><g transform="translate(324.781928, 254.477769)"><g><path d="M 8.515625 -17.78125 C 11.148438 -17.78125 13.460938 -17.128906 15.453125 -15.828125 L 13.765625 -12.34375 C 12.847656 -12.875 11.859375 -13.3125 10.796875 -13.65625 C 9.742188 -14 8.859375 -14.171875 8.140625 -14.171875 C 6.847656 -14.171875 6.203125 -13.742188 6.203125 -12.890625 C 6.203125 -12.335938 6.519531 -11.894531 7.15625 -11.5625 C 7.789062 -11.226562 8.566406 -10.9375 9.484375 -10.6875 C 10.398438 -10.445312 11.3125 -10.15625 12.21875 -9.8125 C 13.132812 -9.46875 13.910156 -8.910156 14.546875 -8.140625 C 15.179688 -7.367188 15.5 -6.394531 15.5 -5.21875 C 15.5 -3.53125 14.835938 -2.210938 13.515625 -1.265625 C 12.191406 -0.316406 10.507812 0.15625 8.46875 0.15625 C 7.007812 0.15625 5.566406 -0.09375 4.140625 -0.59375 C 2.722656 -1.101562 1.484375 -1.789062 0.421875 -2.65625 L 2.15625 -6.109375 C 3.050781 -5.335938 4.097656 -4.703125 5.296875 -4.203125 C 6.503906 -3.710938 7.578125 -3.46875 8.515625 -3.46875 C 9.234375 -3.46875 9.789062 -3.597656 10.1875 -3.859375 C 10.59375 -4.117188 10.796875 -4.5 10.796875 -5 C 10.796875 -5.488281 10.566406 -5.894531 10.109375 -6.21875 C 9.648438 -6.539062 9.078125 -6.78125 8.390625 -6.9375 C 7.703125 -7.101562 6.957031 -7.316406 6.15625 -7.578125 C 5.351562 -7.847656 4.609375 -8.140625 3.921875 -8.453125 C 3.234375 -8.773438 2.65625 -9.285156 2.1875 -9.984375 C 1.726562 -10.679688 1.5 -11.515625 1.5 -12.484375 C 1.5 -14.097656 2.140625 -15.382812 3.421875 -16.34375 C 4.710938 -17.300781 6.410156 -17.78125 8.515625 -17.78125 Z M 8.515625 -17.78125 "/></g></g></g><g fill="#d9d9d9" fill-opacity="1"><g transform="translate(340.963114, 254.477769)"><g><path d="M 10 -17.734375 C 11.300781 -17.734375 12.582031 -17.460938 13.84375 -16.921875 C 15.113281 -16.390625 16.191406 -15.675781 17.078125 -14.78125 L 14.5 -11.703125 C 13.925781 -12.410156 13.238281 -12.96875 12.4375 -13.375 C 11.644531 -13.789062 10.859375 -14 10.078125 -14 C 8.679688 -14 7.515625 -13.507812 6.578125 -12.53125 C 5.640625 -11.550781 5.171875 -10.335938 5.171875 -8.890625 C 5.171875 -7.421875 5.640625 -6.191406 6.578125 -5.203125 C 7.515625 -4.210938 8.679688 -3.71875 10.078125 -3.71875 C 10.816406 -3.71875 11.582031 -3.898438 12.375 -4.265625 C 13.164062 -4.640625 13.875 -5.144531 14.5 -5.78125 L 17.109375 -3.015625 C 16.148438 -2.046875 15.019531 -1.265625 13.71875 -0.671875 C 12.425781 -0.0859375 11.132812 0.203125 9.84375 0.203125 C 7.195312 0.203125 4.992188 -0.65625 3.234375 -2.375 C 1.484375 -4.101562 0.609375 -6.257812 0.609375 -8.84375 C 0.609375 -11.375 1.503906 -13.488281 3.296875 -15.1875 C 5.085938 -16.882812 7.320312 -17.734375 10 -17.734375 Z M 10 -17.734375 "/></g></g></g><g fill="#d9d9d9" fill-opacity="1"><g transform="translate(358.350343, 254.477769)"><g><path d="M 10.09375 -17.734375 C 12.832031 -17.734375 15.101562 -16.882812 16.90625 -15.1875 C 18.71875 -13.488281 19.625 -11.363281 19.625 -8.8125 C 19.625 -6.25 18.710938 -4.101562 16.890625 -2.375 C 15.078125 -0.65625 12.8125 0.203125 10.09375 0.203125 C 7.382812 0.203125 5.125 -0.65625 3.3125 -2.375 C 1.507812 -4.09375 0.609375 -6.238281 0.609375 -8.8125 C 0.609375 -11.375 1.507812 -13.5 3.3125 -15.1875 C 5.125 -16.882812 7.382812 -17.734375 10.09375 -17.734375 Z M 10.15625 -14 C 8.78125 -14 7.601562 -13.5 6.625 -12.5 C 5.65625 -11.5 5.171875 -10.257812 5.171875 -8.78125 C 5.171875 -7.3125 5.660156 -6.070312 6.640625 -5.0625 C 7.617188 -4.050781 8.785156 -3.546875 10.140625 -3.546875 C 11.503906 -3.546875 12.660156 -4.050781 13.609375 -5.0625 C 14.554688 -6.070312 15.03125 -7.3125 15.03125 -8.78125 C 15.03125 -10.257812 14.554688 -11.5 13.609375 -12.5 C 12.660156 -13.5 11.507812 -14 10.15625 -14 Z M 10.15625 -14 "/></g></g></g><g clip-path="url(#974f7e2272)"><path fill="#2563eb" d="M 115.546875 25.570312 C 110.882812 16.023438 105.40625 7.449219 99.269531 0.0859375 C 127.785156 19.773438 147.28125 59.570312 147.28125 105.460938 C 147.28125 151.351562 127.785156 191.148438 99.269531 210.839844 C 105.40625 203.472656 110.882812 194.898438 115.546875 185.355469 C 92.691406 167.722656 77.75 138.511719 77.75 105.460938 C 77.75 72.410156 92.691406 43.199219 115.546875 25.570312 Z M 209.679688 214.058594 C 238.148438 108.929688 183.65625 79.539062 203.050781 0 C 166.488281 72.929688 226.605469 113.378906 209.679688 214.058594 Z M 209.679688 214.058594 " fill-opacity="1" fill-rule="nonzero"/></g><g clip-path="url(#416b43a020)"><path fill="#3dd9bc" d="M 271.175781 185.355469 C 275.839844 194.898438 281.316406 203.472656 287.453125 210.839844 C 258.933594 191.148438 239.4375 151.351562 239.4375 105.460938 C 239.4375 59.570312 258.933594 19.773438 287.453125 0.0859375 C 281.316406 7.453125 275.835938 16.027344 271.175781 25.570312 C 294.027344 43.199219 308.96875 72.410156 308.96875 105.460938 C 308.96875 138.511719 294.027344 167.722656 271.175781 185.355469 Z M 181.835938 96.914062 C 175.878906 96.914062 171.050781 101.746094 171.050781 107.703125 C 171.050781 113.65625 175.878906 118.488281 181.835938 118.488281 C 187.792969 118.488281 192.625 113.65625 192.625 107.703125 C 192.625 101.746094 187.792969 96.914062 181.835938 96.914062 Z M 193.882812 126.375 C 189.929688 125.859375 186.308594 128.648438 185.792969 132.597656 C 185.273438 136.554688 188.0625 140.175781 192.015625 140.691406 C 195.96875 141.207031 199.589844 138.421875 200.105469 134.46875 C 200.625 130.515625 197.835938 126.890625 193.882812 126.375 Z M 197.773438 149.28125 C 195.304688 148.960938 193.042969 150.699219 192.71875 153.167969 C 192.398438 155.640625 194.136719 157.902344 196.605469 158.226562 C 199.078125 158.546875 201.339844 156.804688 201.664062 154.335938 C 201.984375 151.863281 200.242188 149.601562 197.773438 149.28125 Z M 198.171875 169.136719 C 196.289062 168.890625 194.558594 170.21875 194.316406 172.105469 C 194.070312 173.988281 195.398438 175.714844 197.28125 175.960938 C 199.164062 176.207031 200.894531 174.878906 201.136719 172.996094 C 201.386719 171.109375 200.058594 169.382812 198.171875 169.136719 Z M 196.898438 185.140625 C 195.398438 184.945312 194.023438 186.003906 193.828125 187.503906 C 193.632812 189.003906 194.691406 190.378906 196.191406 190.570312 C 197.691406 190.769531 199.066406 189.710938 199.261719 188.210938 C 199.457031 186.710938 198.398438 185.335938 196.898438 185.140625 Z M 193.894531 199.550781 C 192.464844 199.367188 191.15625 200.371094 190.96875 201.800781 C 190.777344 203.230469 191.789062 204.539062 193.21875 204.730469 C 194.648438 204.914062 195.957031 203.910156 196.144531 202.480469 C 196.332031 201.046875 195.324219 199.738281 193.894531 199.550781 Z M 172.703125 87.441406 C 176.535156 88.539062 180.53125 86.320312 181.628906 82.492188 C 182.726562 78.660156 180.511719 74.660156 176.679688 73.5625 C 172.847656 72.464844 168.851562 74.679688 167.753906 78.511719 C 166.652344 82.34375 168.871094 86.339844 172.703125 87.441406 Z M 172.265625 64.210938 C 174.660156 64.894531 177.15625 63.511719 177.839844 61.117188 C 178.527344 58.722656 177.144531 56.226562 174.746094 55.542969 C 172.355469 54.855469 169.855469 56.238281 169.171875 58.632812 C 168.484375 61.027344 169.871094 63.527344 172.265625 64.210938 Z M 174.824219 44.515625 C 176.652344 45.039062 178.558594 43.980469 179.082031 42.15625 C 179.605469 40.328125 178.550781 38.421875 176.722656 37.898438 C 174.894531 37.375 172.988281 38.429688 172.464844 40.257812 C 171.941406 42.085938 173 43.992188 174.824219 44.515625 Z M 178.464844 28.878906 C 179.921875 29.296875 181.4375 28.453125 181.855469 27 C 182.273438 25.546875 181.429688 24.027344 179.976562 23.609375 C 178.523438 23.195312 177.003906 24.035156 176.585938 25.488281 C 176.171875 26.945312 177.011719 28.464844 178.464844 28.878906 Z M 183.578125 15.078125 C 184.964844 15.472656 186.410156 14.671875 186.804688 13.289062 C 187.203125 11.902344 186.402344 10.457031 185.015625 10.0625 C 183.632812 9.664062 182.1875 10.464844 181.789062 11.847656 C 181.394531 13.234375 182.195312 14.679688 183.578125 15.078125 Z M 183.578125 15.078125 " fill-opacity="1" fill-rule="nonzero"/></g></svg>