<svg xmlns="http://www.w3.org/2000/svg" xmlns:xlink="http://www.w3.org/1999/xlink" width="506" zoomAndPan="magnify" viewBox="0 0 379.5 69.749997" height="93" preserveAspectRatio="xMidYMid meet" version="1.0"><defs><g/><clipPath id="6566ea1bde"><path d="M 0.429688 0 L 46 0 L 46 69.5 L 0.429688 69.5 Z M 0.429688 0 " clip-rule="nonzero"/></clipPath><clipPath id="d1d8d65a43"><path d="M 29 0 L 75.160156 0 L 75.160156 69 L 29 69 Z M 29 0 " clip-rule="nonzero"/></clipPath></defs><g fill="#04383f" fill-opacity="1"><g transform="translate(91.799532, 42.269024)"><g><path d="M 7.59375 -13.453125 C 8.582031 -13.453125 9.554688 -13.25 10.515625 -12.84375 C 11.472656 -12.4375 12.289062 -11.890625 12.96875 -11.203125 L 11 -8.890625 C 10.5625 -9.421875 10.039062 -9.84375 9.4375 -10.15625 C 8.84375 -10.46875 8.242188 -10.625 7.640625 -10.625 C 6.585938 -10.625 5.703125 -10.25 4.984375 -9.5 C 4.273438 -8.757812 3.921875 -7.84375 3.921875 -6.75 C 3.921875 -5.632812 4.273438 -4.703125 4.984375 -3.953125 C 5.703125 -3.203125 6.585938 -2.828125 7.640625 -2.828125 C 8.203125 -2.828125 8.785156 -2.960938 9.390625 -3.234375 C 9.992188 -3.515625 10.53125 -3.898438 11 -4.390625 L 12.984375 -2.28125 C 12.253906 -1.550781 11.394531 -0.960938 10.40625 -0.515625 C 9.425781 -0.0664062 8.445312 0.15625 7.46875 0.15625 C 5.457031 0.15625 3.785156 -0.5 2.453125 -1.8125 C 1.117188 -3.125 0.453125 -4.753906 0.453125 -6.703125 C 0.453125 -8.628906 1.128906 -10.234375 2.484375 -11.515625 C 3.847656 -12.804688 5.550781 -13.453125 7.59375 -13.453125 Z M 7.59375 -13.453125 "/></g></g></g><g fill="#04383f" fill-opacity="1"><g transform="translate(104.986797, 42.269024)"><g><path d="M 11.78125 -10.671875 L 4.734375 -10.671875 L 4.734375 -8.03125 L 11.09375 -8.03125 L 11.09375 -5.359375 L 4.734375 -5.359375 L 4.734375 -2.671875 L 11.984375 -2.671875 L 11.984375 0 L 1.328125 0 L 1.328125 -13.34375 L 11.78125 -13.34375 Z M 11.78125 -10.671875 "/></g></g></g><g fill="#04383f" fill-opacity="1"><g transform="translate(117.831043, 42.269024)"><g><path d="M 13.65625 0 L 10.65625 0 L 4.515625 -8.21875 L 4.515625 0 L 1.328125 0 L 1.328125 -13.34375 L 4.328125 -13.34375 L 10.484375 -5.109375 L 10.484375 -13.34375 L 13.65625 -13.34375 Z M 13.65625 0 "/></g></g></g><g fill="#04383f" fill-opacity="1"><g transform="translate(132.809638, 42.269024)"><g><path d="M 11.53125 -10.625 L 7.515625 -10.625 L 7.515625 0 L 4.125 0 L 4.125 -10.625 L 0.140625 -10.625 L 0.140625 -13.359375 L 11.53125 -13.359375 Z M 11.53125 -10.625 "/></g></g></g><g fill="#04383f" fill-opacity="1"><g transform="translate(144.453311, 42.269024)"><g><path d="M 9.375 0 L 7.390625 -3.75 L 4.734375 -3.75 L 4.734375 0 L 1.328125 0 L 1.328125 -13.34375 L 7.296875 -13.34375 C 9.066406 -13.34375 10.429688 -12.9375 11.390625 -12.125 C 12.359375 -11.320312 12.84375 -10.175781 12.84375 -8.6875 C 12.84375 -6.632812 12.035156 -5.207031 10.421875 -4.40625 L 13.234375 0 Z M 4.734375 -6.421875 L 7.296875 -6.421875 C 8.035156 -6.421875 8.609375 -6.601562 9.015625 -6.96875 C 9.421875 -7.34375 9.625 -7.878906 9.625 -8.578125 C 9.625 -9.265625 9.421875 -9.785156 9.015625 -10.140625 C 8.609375 -10.492188 8.035156 -10.671875 7.296875 -10.671875 L 4.734375 -10.671875 Z M 4.734375 -6.421875 "/></g></g></g><g fill="#04383f" fill-opacity="1"><g transform="translate(158.250392, 42.269024)"><g><path d="M 7.65625 -13.453125 C 9.726562 -13.453125 11.453125 -12.804688 12.828125 -11.515625 C 14.203125 -10.234375 14.890625 -8.625 14.890625 -6.6875 C 14.890625 -4.75 14.195312 -3.125 12.8125 -1.8125 C 11.4375 -0.5 9.71875 0.15625 7.65625 0.15625 C 5.601562 0.15625 3.890625 -0.492188 2.515625 -1.796875 C 1.140625 -3.097656 0.453125 -4.726562 0.453125 -6.6875 C 0.453125 -8.632812 1.140625 -10.25 2.515625 -11.53125 C 3.890625 -12.8125 5.601562 -13.453125 7.65625 -13.453125 Z M 7.703125 -10.625 C 6.660156 -10.625 5.769531 -10.242188 5.03125 -9.484375 C 4.289062 -8.722656 3.921875 -7.785156 3.921875 -6.671875 C 3.921875 -5.554688 4.289062 -4.613281 5.03125 -3.84375 C 5.78125 -3.070312 6.671875 -2.6875 7.703125 -2.6875 C 8.734375 -2.6875 9.609375 -3.070312 10.328125 -3.84375 C 11.046875 -4.613281 11.40625 -5.554688 11.40625 -6.671875 C 11.40625 -7.785156 11.046875 -8.722656 10.328125 -9.484375 C 9.609375 -10.242188 8.734375 -10.625 7.703125 -10.625 Z M 7.703125 -10.625 "/></g></g></g><g fill="#04383f" fill-opacity="1"><g transform="translate(173.591065, 42.269024)"><g/></g></g><g fill="#04383f" fill-opacity="1"><g transform="translate(178.012232, 42.269024)"><g><path d="M 16 0 L 13 0 L 12.984375 -8.671875 L 9.78125 -1.328125 L 7.5625 -1.328125 L 4.359375 -8.671875 L 4.359375 0 L 1.328125 0 L 1.328125 -13.359375 L 5.046875 -13.359375 L 8.671875 -5.40625 L 12.296875 -13.359375 L 16 -13.359375 Z M 16 0 "/></g></g></g><g fill="#04383f" fill-opacity="1"><g transform="translate(195.353866, 42.269024)"><g><path d="M 9.953125 -16.65625 L 7.46875 -14.5 L 4.953125 -14.5 L 6.984375 -17.703125 Z M 11.78125 -10.671875 L 4.734375 -10.671875 L 4.734375 -8.03125 L 11.09375 -8.03125 L 11.09375 -5.359375 L 4.734375 -5.359375 L 4.734375 -2.671875 L 11.984375 -2.671875 L 11.984375 0 L 1.328125 0 L 1.328125 -13.34375 L 11.78125 -13.34375 Z M 11.78125 -10.671875 "/></g></g></g><g fill="#04383f" fill-opacity="1"><g transform="translate(208.198113, 42.269024)"><g><path d="M 1.328125 -13.34375 L 7.078125 -13.34375 C 9.171875 -13.34375 10.875 -12.722656 12.1875 -11.484375 C 13.5 -10.253906 14.15625 -8.648438 14.15625 -6.671875 C 14.15625 -4.703125 13.488281 -3.097656 12.15625 -1.859375 C 10.820312 -0.617188 9.082031 0 6.9375 0 L 1.328125 0 Z M 4.734375 -10.640625 L 4.734375 -2.703125 L 7.15625 -2.703125 C 8.195312 -2.703125 9.050781 -3.066406 9.71875 -3.796875 C 10.382812 -4.535156 10.71875 -5.488281 10.71875 -6.65625 C 10.71875 -7.820312 10.363281 -8.773438 9.65625 -9.515625 C 8.957031 -10.265625 8.070312 -10.640625 7 -10.640625 Z M 4.734375 -10.640625 "/></g></g></g><g fill="#04383f" fill-opacity="1"><g transform="translate(222.81463, 42.269024)"><g><path d="M 4.734375 0 L 1.328125 0 L 1.328125 -13.34375 L 4.734375 -13.34375 Z M 4.734375 0 "/></g></g></g><g fill="#04383f" fill-opacity="1"><g transform="translate(228.874669, 42.269024)"><g><path d="M 7.59375 -13.453125 C 8.582031 -13.453125 9.554688 -13.25 10.515625 -12.84375 C 11.472656 -12.4375 12.289062 -11.890625 12.96875 -11.203125 L 11 -8.890625 C 10.5625 -9.421875 10.039062 -9.84375 9.4375 -10.15625 C 8.84375 -10.46875 8.242188 -10.625 7.640625 -10.625 C 6.585938 -10.625 5.703125 -10.25 4.984375 -9.5 C 4.273438 -8.757812 3.921875 -7.84375 3.921875 -6.75 C 3.921875 -5.632812 4.273438 -4.703125 4.984375 -3.953125 C 5.703125 -3.203125 6.585938 -2.828125 7.640625 -2.828125 C 8.203125 -2.828125 8.785156 -2.960938 9.390625 -3.234375 C 9.992188 -3.515625 10.53125 -3.898438 11 -4.390625 L 12.984375 -2.28125 C 12.253906 -1.550781 11.394531 -0.960938 10.40625 -0.515625 C 9.425781 -0.0664062 8.445312 0.15625 7.46875 0.15625 C 5.457031 0.15625 3.785156 -0.5 2.453125 -1.8125 C 1.117188 -3.125 0.453125 -4.753906 0.453125 -6.703125 C 0.453125 -8.628906 1.128906 -10.234375 2.484375 -11.515625 C 3.847656 -12.804688 5.550781 -13.453125 7.59375 -13.453125 Z M 7.59375 -13.453125 "/></g></g></g><g fill="#04383f" fill-opacity="1"><g transform="translate(242.061934, 42.269024)"><g><path d="M 7.65625 -13.453125 C 9.726562 -13.453125 11.453125 -12.804688 12.828125 -11.515625 C 14.203125 -10.234375 14.890625 -8.625 14.890625 -6.6875 C 14.890625 -4.75 14.195312 -3.125 12.8125 -1.8125 C 11.4375 -0.5 9.71875 0.15625 7.65625 0.15625 C 5.601562 0.15625 3.890625 -0.492188 2.515625 -1.796875 C 1.140625 -3.097656 0.453125 -4.726562 0.453125 -6.6875 C 0.453125 -8.632812 1.140625 -10.25 2.515625 -11.53125 C 3.890625 -12.8125 5.601562 -13.453125 7.65625 -13.453125 Z M 7.703125 -10.625 C 6.660156 -10.625 5.769531 -10.242188 5.03125 -9.484375 C 4.289062 -8.722656 3.921875 -7.785156 3.921875 -6.671875 C 3.921875 -5.554688 4.289062 -4.613281 5.03125 -3.84375 C 5.78125 -3.070312 6.671875 -2.6875 7.703125 -2.6875 C 8.734375 -2.6875 9.609375 -3.070312 10.328125 -3.84375 C 11.046875 -4.613281 11.40625 -5.554688 11.40625 -6.671875 C 11.40625 -7.785156 11.046875 -8.722656 10.328125 -9.484375 C 9.609375 -10.242188 8.734375 -10.625 7.703125 -10.625 Z M 7.703125 -10.625 "/></g></g></g><g fill="#04383f" fill-opacity="1"><g transform="translate(257.402607, 42.269024)"><g/></g></g><g fill="#04383f" fill-opacity="1"><g transform="translate(261.823773, 42.269024)"><g><path d="M 7.59375 -13.453125 C 8.582031 -13.453125 9.554688 -13.25 10.515625 -12.84375 C 11.472656 -12.4375 12.289062 -11.890625 12.96875 -11.203125 L 11 -8.890625 C 10.5625 -9.421875 10.039062 -9.84375 9.4375 -10.15625 C 8.84375 -10.46875 8.242188 -10.625 7.640625 -10.625 C 6.585938 -10.625 5.703125 -10.25 4.984375 -9.5 C 4.273438 -8.757812 3.921875 -7.84375 3.921875 -6.75 C 3.921875 -5.632812 4.273438 -4.703125 4.984375 -3.953125 C 5.703125 -3.203125 6.585938 -2.828125 7.640625 -2.828125 C 8.203125 -2.828125 8.785156 -2.960938 9.390625 -3.234375 C 9.992188 -3.515625 10.53125 -3.898438 11 -4.390625 L 12.984375 -2.28125 C 12.253906 -1.550781 11.394531 -0.960938 10.40625 -0.515625 C 9.425781 -0.0664062 8.445312 0.15625 7.46875 0.15625 C 5.457031 0.15625 3.785156 -0.5 2.453125 -1.8125 C 1.117188 -3.125 0.453125 -4.753906 0.453125 -6.703125 C 0.453125 -8.628906 1.128906 -10.234375 2.484375 -11.515625 C 3.847656 -12.804688 5.550781 -13.453125 7.59375 -13.453125 Z M 7.59375 -13.453125 "/></g></g></g><g fill="#04383f" fill-opacity="1"><g transform="translate(275.011039, 42.269024)"><g><path d="M 10.203125 -2.453125 L 4.359375 -2.453125 L 3.390625 0 L -0.09375 0 L 5.65625 -13.34375 L 9.15625 -13.34375 L 14.78125 0 L 11.15625 0 Z M 9.203125 -5.03125 L 7.296875 -9.96875 L 5.359375 -5.03125 Z M 9.203125 -5.03125 "/></g></g></g><g fill="#04383f" fill-opacity="1"><g transform="translate(289.684732, 42.269024)"><g><path d="M 9.375 0 L 7.390625 -3.75 L 4.734375 -3.75 L 4.734375 0 L 1.328125 0 L 1.328125 -13.34375 L 7.296875 -13.34375 C 9.066406 -13.34375 10.429688 -12.9375 11.390625 -12.125 C 12.359375 -11.320312 12.84375 -10.175781 12.84375 -8.6875 C 12.84375 -6.632812 12.035156 -5.207031 10.421875 -4.40625 L 13.234375 0 Z M 4.734375 -6.421875 L 7.296875 -6.421875 C 8.035156 -6.421875 8.609375 -6.601562 9.015625 -6.96875 C 9.421875 -7.34375 9.625 -7.878906 9.625 -8.578125 C 9.625 -9.265625 9.421875 -9.785156 9.015625 -10.140625 C 8.609375 -10.492188 8.035156 -10.671875 7.296875 -10.671875 L 4.734375 -10.671875 Z M 4.734375 -6.421875 "/></g></g></g><g fill="#04383f" fill-opacity="1"><g transform="translate(303.481813, 42.269024)"><g><path d="M 9.375 0 L 7.390625 -3.75 L 4.734375 -3.75 L 4.734375 0 L 1.328125 0 L 1.328125 -13.34375 L 7.296875 -13.34375 C 9.066406 -13.34375 10.429688 -12.9375 11.390625 -12.125 C 12.359375 -11.320312 12.84375 -10.175781 12.84375 -8.6875 C 12.84375 -6.632812 12.035156 -5.207031 10.421875 -4.40625 L 13.234375 0 Z M 4.734375 -6.421875 L 7.296875 -6.421875 C 8.035156 -6.421875 8.609375 -6.601562 9.015625 -6.96875 C 9.421875 -7.34375 9.625 -7.878906 9.625 -8.578125 C 9.625 -9.265625 9.421875 -9.785156 9.015625 -10.140625 C 8.609375 -10.492188 8.035156 -10.671875 7.296875 -10.671875 L 4.734375 -10.671875 Z M 4.734375 -6.421875 "/></g></g></g><g fill="#04383f" fill-opacity="1"><g transform="translate(317.278882, 42.269024)"><g><path d="M 10.203125 -2.453125 L 4.359375 -2.453125 L 3.390625 0 L -0.09375 0 L 5.65625 -13.34375 L 9.15625 -13.34375 L 14.78125 0 L 11.15625 0 Z M 9.203125 -5.03125 L 7.296875 -9.96875 L 5.359375 -5.03125 Z M 9.203125 -5.03125 "/></g></g></g><g fill="#04383f" fill-opacity="1"><g transform="translate(331.952575, 42.269024)"><g><path d="M 6.46875 -13.5 C 8.457031 -13.5 10.207031 -13.003906 11.71875 -12.015625 L 10.453125 -9.359375 C 9.742188 -9.765625 8.988281 -10.097656 8.1875 -10.359375 C 7.394531 -10.617188 6.722656 -10.75 6.171875 -10.75 C 5.191406 -10.75 4.703125 -10.425781 4.703125 -9.78125 C 4.703125 -9.363281 4.941406 -9.023438 5.421875 -8.765625 C 5.910156 -8.515625 6.5 -8.296875 7.1875 -8.109375 C 7.882812 -7.921875 8.578125 -7.695312 9.265625 -7.4375 C 9.960938 -7.175781 10.550781 -6.753906 11.03125 -6.171875 C 11.519531 -5.585938 11.765625 -4.851562 11.765625 -3.96875 C 11.765625 -2.6875 11.257812 -1.6875 10.25 -0.96875 C 9.25 -0.25 7.972656 0.109375 6.421875 0.109375 C 5.316406 0.109375 4.222656 -0.078125 3.140625 -0.453125 C 2.066406 -0.835938 1.128906 -1.359375 0.328125 -2.015625 L 1.640625 -4.625 C 2.316406 -4.039062 3.109375 -3.5625 4.015625 -3.1875 C 4.929688 -2.8125 5.75 -2.625 6.46875 -2.625 C 7.007812 -2.625 7.429688 -2.722656 7.734375 -2.921875 C 8.046875 -3.117188 8.203125 -3.410156 8.203125 -3.796875 C 8.203125 -4.160156 8.023438 -4.46875 7.671875 -4.71875 C 7.328125 -4.96875 6.890625 -5.148438 6.359375 -5.265625 C 5.835938 -5.390625 5.269531 -5.550781 4.65625 -5.75 C 4.050781 -5.957031 3.488281 -6.179688 2.96875 -6.421875 C 2.445312 -6.660156 2.007812 -7.046875 1.65625 -7.578125 C 1.3125 -8.109375 1.140625 -8.738281 1.140625 -9.46875 C 1.140625 -10.6875 1.625 -11.660156 2.59375 -12.390625 C 3.570312 -13.128906 4.863281 -13.5 6.46875 -13.5 Z M 6.46875 -13.5 "/></g></g></g><g fill="#04383f" fill-opacity="1"><g transform="translate(344.225123, 42.269024)"><g><path d="M 7.59375 -13.453125 C 8.582031 -13.453125 9.554688 -13.25 10.515625 -12.84375 C 11.472656 -12.4375 12.289062 -11.890625 12.96875 -11.203125 L 11 -8.890625 C 10.5625 -9.421875 10.039062 -9.84375 9.4375 -10.15625 C 8.84375 -10.46875 8.242188 -10.625 7.640625 -10.625 C 6.585938 -10.625 5.703125 -10.25 4.984375 -9.5 C 4.273438 -8.757812 3.921875 -7.84375 3.921875 -6.75 C 3.921875 -5.632812 4.273438 -4.703125 4.984375 -3.953125 C 5.703125 -3.203125 6.585938 -2.828125 7.640625 -2.828125 C 8.203125 -2.828125 8.785156 -2.960938 9.390625 -3.234375 C 9.992188 -3.515625 10.53125 -3.898438 11 -4.390625 L 12.984375 -2.28125 C 12.253906 -1.550781 11.394531 -0.960938 10.40625 -0.515625 C 9.425781 -0.0664062 8.445312 0.15625 7.46875 0.15625 C 5.457031 0.15625 3.785156 -0.5 2.453125 -1.8125 C 1.117188 -3.125 0.453125 -4.753906 0.453125 -6.703125 C 0.453125 -8.628906 1.128906 -10.234375 2.484375 -11.515625 C 3.847656 -12.804688 5.550781 -13.453125 7.59375 -13.453125 Z M 7.59375 -13.453125 "/></g></g></g><g fill="#04383f" fill-opacity="1"><g transform="translate(357.412388, 42.269024)"><g><path d="M 7.65625 -13.453125 C 9.726562 -13.453125 11.453125 -12.804688 12.828125 -11.515625 C 14.203125 -10.234375 14.890625 -8.625 14.890625 -6.6875 C 14.890625 -4.75 14.195312 -3.125 12.8125 -1.8125 C 11.4375 -0.5 9.71875 0.15625 7.65625 0.15625 C 5.601562 0.15625 3.890625 -0.492188 2.515625 -1.796875 C 1.140625 -3.097656 0.453125 -4.726562 0.453125 -6.6875 C 0.453125 -8.632812 1.140625 -10.25 2.515625 -11.53125 C 3.890625 -12.8125 5.601562 -13.453125 7.65625 -13.453125 Z M 7.703125 -10.625 C 6.660156 -10.625 5.769531 -10.242188 5.03125 -9.484375 C 4.289062 -8.722656 3.921875 -7.785156 3.921875 -6.671875 C 3.921875 -5.554688 4.289062 -4.613281 5.03125 -3.84375 C 5.78125 -3.070312 6.671875 -2.6875 7.703125 -2.6875 C 8.734375 -2.6875 9.609375 -3.070312 10.328125 -3.84375 C 11.046875 -4.613281 11.40625 -5.554688 11.40625 -6.671875 C 11.40625 -7.785156 11.046875 -8.722656 10.328125 -9.484375 C 9.609375 -10.242188 8.734375 -10.625 7.703125 -10.625 Z M 7.703125 -10.625 "/></g></g></g><g clip-path="url(#6566ea1bde)"><path fill="#2563eb" d="M 12.71875 8.292969 C 11.203125 5.199219 9.429688 2.417969 7.4375 0.0273438 C 16.6875 6.414062 23.011719 19.324219 23.011719 34.207031 C 23.011719 49.09375 16.6875 62.003906 7.4375 68.390625 C 9.429688 66 11.203125 63.21875 12.71875 60.125 C 5.304688 54.402344 0.457031 44.929688 0.457031 34.207031 C 0.457031 23.488281 5.304688 14.011719 12.71875 8.292969 Z M 43.25 69.433594 C 52.484375 35.332031 34.8125 25.800781 41.101562 0 C 29.242188 23.65625 48.742188 36.777344 43.25 69.433594 Z M 43.25 69.433594 " fill-opacity="1" fill-rule="nonzero"/></g><g clip-path="url(#d1d8d65a43)"><path fill="#3dd9bc" d="M 63.199219 60.125 C 64.710938 63.21875 66.488281 66 68.476562 68.390625 C 59.226562 62.003906 52.902344 49.09375 52.902344 34.207031 C 52.902344 19.324219 59.226562 6.414062 68.476562 0.0273438 C 66.488281 2.417969 64.710938 5.199219 63.199219 8.292969 C 70.609375 14.011719 75.457031 23.488281 75.457031 34.207031 C 75.457031 44.929688 70.609375 54.402344 63.199219 60.125 Z M 34.21875 31.4375 C 32.289062 31.4375 30.722656 33.003906 30.722656 34.933594 C 30.722656 36.867188 32.289062 38.433594 34.21875 38.433594 C 36.152344 38.433594 37.71875 36.867188 37.71875 34.933594 C 37.71875 33.003906 36.152344 31.4375 34.21875 31.4375 Z M 38.128906 40.992188 C 36.84375 40.824219 35.671875 41.730469 35.503906 43.011719 C 35.335938 44.292969 36.238281 45.46875 37.519531 45.636719 C 38.804688 45.804688 39.980469 44.898438 40.144531 43.617188 C 40.3125 42.335938 39.410156 41.160156 38.128906 40.992188 Z M 39.390625 48.421875 C 38.589844 48.316406 37.855469 48.882812 37.75 49.683594 C 37.644531 50.484375 38.210938 51.21875 39.011719 51.324219 C 39.8125 51.425781 40.546875 50.863281 40.652344 50.0625 C 40.753906 49.261719 40.191406 48.527344 39.390625 48.421875 Z M 39.519531 54.863281 C 38.90625 54.785156 38.347656 55.214844 38.265625 55.824219 C 38.1875 56.4375 38.617188 56.996094 39.230469 57.078125 C 39.839844 57.15625 40.402344 56.726562 40.480469 56.113281 C 40.5625 55.503906 40.128906 54.941406 39.519531 54.863281 Z M 39.105469 60.054688 C 38.617188 59.988281 38.171875 60.332031 38.109375 60.820312 C 38.046875 61.308594 38.390625 61.753906 38.875 61.816406 C 39.363281 61.878906 39.808594 61.535156 39.871094 61.050781 C 39.933594 60.5625 39.59375 60.117188 39.105469 60.054688 Z M 38.132812 64.726562 C 37.667969 64.667969 37.242188 64.996094 37.183594 65.457031 C 37.121094 65.921875 37.449219 66.347656 37.910156 66.40625 C 38.375 66.46875 38.800781 66.140625 38.859375 65.679688 C 38.921875 65.214844 38.59375 64.789062 38.132812 64.726562 Z M 31.257812 28.363281 C 32.5 28.71875 33.796875 28 34.152344 26.757812 C 34.507812 25.515625 33.789062 24.21875 32.546875 23.863281 C 31.304688 23.503906 30.007812 24.222656 29.652344 25.46875 C 29.292969 26.710938 30.015625 28.007812 31.257812 28.363281 Z M 31.113281 20.828125 C 31.890625 21.050781 32.703125 20.601562 32.921875 19.824219 C 33.144531 19.046875 32.699219 18.238281 31.921875 18.015625 C 31.144531 17.792969 30.332031 18.242188 30.113281 19.019531 C 29.890625 19.796875 30.339844 20.605469 31.113281 20.828125 Z M 31.945312 14.4375 C 32.539062 14.609375 33.15625 14.265625 33.328125 13.671875 C 33.496094 13.082031 33.152344 12.464844 32.5625 12.292969 C 31.96875 12.121094 31.351562 12.464844 31.179688 13.058594 C 31.011719 13.652344 31.351562 14.269531 31.945312 14.4375 Z M 33.125 9.367188 C 33.597656 9.503906 34.089844 9.230469 34.226562 8.757812 C 34.363281 8.285156 34.089844 7.792969 33.617188 7.660156 C 33.144531 7.523438 32.652344 7.796875 32.515625 8.269531 C 32.382812 8.738281 32.65625 9.234375 33.125 9.367188 Z M 34.785156 4.890625 C 35.234375 5.019531 35.703125 4.757812 35.832031 4.308594 C 35.960938 3.859375 35.699219 3.390625 35.25 3.261719 C 34.800781 3.132812 34.332031 3.394531 34.203125 3.84375 C 34.074219 4.292969 34.335938 4.761719 34.785156 4.890625 Z M 34.785156 4.890625 " fill-opacity="1" fill-rule="nonzero"/></g></svg>